<svg xmlns="http://www.w3.org/2000/svg" width="216" height="160" viewBox="0 0 216 160"><defs><radialGradient id="r82" cx="0.5" cy="0.5" r="0.5"><stop offset="0" stop-color="#3A3226" stop-opacity="0.3"/><stop offset="0.55" stop-color="#3A3226" stop-opacity="0.2"/><stop offset="1" stop-color="#3A3226" stop-opacity="0"/></radialGradient><linearGradient id="l83" x1="0.18" y1="0" x2="0.78" y2="1"><stop offset="0" stop-color="#426834"/><stop offset="0.55" stop-color="#2B492D"/><stop offset="1" stop-color="#25402A"/></linearGradient><linearGradient id="l84" x1="0.18" y1="0" x2="0.78" y2="1"><stop offset="0" stop-color="#578038"/><stop offset="0.55" stop-color="#3B6033"/><stop offset="1" stop-color="#25402A"/></linearGradient><linearGradient id="l85" x1="0.18" y1="0" x2="0.78" y2="1"><stop offset="0" stop-color="#73963D"/><stop offset="0.55" stop-color="#507837"/><stop offset="1" stop-color="#2F4F2E"/></linearGradient><linearGradient id="l86" x1="0.18" y1="0" x2="0.78" y2="1"><stop offset="0" stop-color="#90AC42"/><stop offset="0.55" stop-color="#698E3B"/><stop offset="1" stop-color="#416634"/></linearGradient><linearGradient id="l87" x1="0.18" y1="0" x2="0.78" y2="1"><stop offset="0" stop-color="#ADC148"/><stop offset="0.55" stop-color="#86A540"/><stop offset="1" stop-color="#557E38"/></linearGradient><linearGradient id="l88" x1="0.18" y1="0" x2="0.78" y2="1"><stop offset="0" stop-color="#C6D24E"/><stop offset="0.55" stop-color="#A4BB45"/><stop offset="1" stop-color="#71943C"/></linearGradient><linearGradient id="l89" x1="0.18" y1="0" x2="0.78" y2="1"><stop offset="0" stop-color="#C6D24E"/><stop offset="0.55" stop-color="#BFCD4C"/><stop offset="1" stop-color="#8EAB42"/></linearGradient></defs><ellipse cx="111" cy="150" rx="91.73" ry="24.46" fill="url(#r82)"/><circle cx="50.21" cy="115.06" r="39.77" fill="#1B3324"/><circle cx="61.25" cy="103.21" r="41.04" fill="#1B3324"/><circle cx="90.14" cy="95.88" r="41.62" fill="#1B3324"/><circle cx="125.86" cy="95.88" r="43.2" fill="#1B3324"/><circle cx="154.75" cy="103.21" r="41.02" fill="#1B3324"/><circle cx="165.79" cy="115.06" r="42.98" fill="#1B3324"/><circle cx="108" cy="100.27" r="41.13" fill="#1B3324"/><circle cx="26.43" cy="94.68" r="16.59" fill="#1B3324"/><circle cx="81.23" cy="104.73" r="17.47" fill="#1B3324"/><circle cx="79.99" cy="119.89" r="17.62" fill="#1B3324"/><circle cx="29.54" cy="90.35" r="11.9" fill="#1B3324"/><circle cx="22.76" cy="119.81" r="14.86" fill="#1B3324"/><circle cx="37.62" cy="92.79" r="12.93" fill="#1B3324"/><circle cx="54.57" cy="134.57" r="16.85" fill="#1B3324"/><circle cx="80.05" cy="129.14" r="12.37" fill="#1B3324"/><circle cx="40.78" cy="86.83" r="11.4" fill="#1B3324"/><circle cx="80.98" cy="85.04" r="12.92" fill="#1B3324"/><circle cx="126.25" cy="92.36" r="13.6" fill="#1B3324"/><circle cx="121.83" cy="89" r="16.41" fill="#1B3324"/><circle cx="100.54" cy="127.21" r="16.51" fill="#1B3324"/><circle cx="125.9" cy="89.17" r="13.67" fill="#1B3324"/><circle cx="71.8" cy="115.1" r="12.56" fill="#1B3324"/><circle cx="154.54" cy="106.83" r="16.39" fill="#1B3324"/><circle cx="161.45" cy="96.55" r="14.39" fill="#1B3324"/><circle cx="112.17" cy="126.34" r="15.46" fill="#1B3324"/><circle cx="112.47" cy="122.74" r="17.15" fill="#1B3324"/><circle cx="162.4" cy="107.92" r="12.01" fill="#1B3324"/><circle cx="154.71" cy="72" r="11.51" fill="#1B3324"/><circle cx="161.86" cy="77.33" r="15.5" fill="#1B3324"/><circle cx="181.49" cy="104.55" r="12.67" fill="#1B3324"/><circle cx="182.04" cy="96.26" r="16.77" fill="#1B3324"/><circle cx="187.76" cy="89.46" r="13.84" fill="#1B3324"/><circle cx="145.2" cy="138.48" r="17.61" fill="#1B3324"/><circle cx="193.97" cy="135.06" r="17.77" fill="#1B3324"/><circle cx="183.64" cy="96" r="18.89" fill="#1B3324"/><circle cx="192.3" cy="130.1" r="16.37" fill="#1B3324"/><circle cx="193.24" cy="101.4" r="18.73" fill="#1B3324"/><circle cx="79.44" cy="92.94" r="13.67" fill="#1B3324"/><circle cx="119.97" cy="121.76" r="12.47" fill="#1B3324"/><circle cx="94.12" cy="69.88" r="12.56" fill="#1B3324"/><circle cx="143.4" cy="110.08" r="15.22" fill="#1B3324"/><circle cx="83.98" cy="114.47" r="15.65" fill="#1B3324"/><circle cx="94.12" cy="69.88" r="9.06" fill="url(#l88)"/><circle cx="154.71" cy="72" r="8.01" fill="url(#l87)"/><circle cx="161.86" cy="77.33" r="12" fill="url(#l87)"/><circle cx="80.98" cy="85.04" r="9.42" fill="url(#l87)"/><circle cx="125.86" cy="95.88" r="39.7" fill="url(#l86)"/><circle cx="90.14" cy="95.88" r="38.12" fill="url(#l87)"/><circle cx="40.78" cy="86.83" r="7.9" fill="url(#l87)"/><circle cx="121.83" cy="89" r="12.91" fill="url(#l87)"/><circle cx="125.9" cy="89.17" r="10.17" fill="url(#l87)"/><circle cx="187.76" cy="89.46" r="10.34" fill="url(#l86)"/><circle cx="29.54" cy="90.35" r="8.4" fill="url(#l87)"/><circle cx="108" cy="100.27" r="37.63" fill="url(#l86)"/><circle cx="126.25" cy="92.36" r="10.1" fill="url(#l86)"/><circle cx="79.44" cy="92.94" r="10.17" fill="url(#l87)"/><circle cx="37.62" cy="92.79" r="9.43" fill="url(#l87)"/><circle cx="26.43" cy="94.68" r="13.09" fill="url(#l87)"/><circle cx="183.64" cy="96" r="15.39" fill="url(#l86)"/><circle cx="61.25" cy="103.21" r="37.54" fill="url(#l87)"/><circle cx="154.75" cy="103.21" r="37.52" fill="url(#l86)"/><circle cx="182.04" cy="96.26" r="13.27" fill="url(#l86)"/><circle cx="161.45" cy="96.55" r="10.89" fill="url(#l86)"/><circle cx="193.24" cy="101.4" r="15.23" fill="url(#l85)"/><circle cx="81.23" cy="104.73" r="13.97" fill="url(#l86)"/><circle cx="181.49" cy="104.55" r="9.17" fill="url(#l85)"/><circle cx="154.54" cy="106.83" r="12.89" fill="url(#l86)"/><circle cx="165.79" cy="115.06" r="39.48" fill="url(#l85)"/><circle cx="50.21" cy="115.06" r="36.27" fill="url(#l86)"/><circle cx="162.4" cy="107.92" r="8.51" fill="url(#l85)"/><circle cx="143.4" cy="110.08" r="11.72" fill="url(#l85)"/><circle cx="83.98" cy="114.47" r="12.15" fill="url(#l86)"/><circle cx="71.8" cy="115.1" r="9.06" fill="url(#l86)"/><circle cx="79.99" cy="119.89" r="14.12" fill="url(#l86)"/><circle cx="22.76" cy="119.81" r="11.36" fill="url(#l86)"/><circle cx="112.47" cy="122.74" r="13.65" fill="url(#l85)"/><circle cx="119.97" cy="121.76" r="8.97" fill="url(#l85)"/><circle cx="112.17" cy="126.34" r="11.96" fill="url(#l85)"/><circle cx="100.54" cy="127.21" r="13.01" fill="url(#l85)"/><circle cx="192.3" cy="130.1" r="12.87" fill="url(#l84)"/><circle cx="80.05" cy="129.14" r="8.87" fill="url(#l85)"/><circle cx="54.57" cy="134.57" r="13.35" fill="url(#l85)"/><circle cx="193.97" cy="135.06" r="14.27" fill="url(#l84)"/><circle cx="145.2" cy="138.48" r="14.11" fill="url(#l84)"/><ellipse cx="95.38" cy="67.71" rx="1.42" ry="1.02" fill="#9CB644" opacity="0.31" transform="rotate(-0.9 95.38 67.71)"/><ellipse cx="94.53" cy="69.28" rx="2.39" ry="1.57" fill="#B6C84A" opacity="0.55" transform="rotate(-55.07 94.53 69.28)"/><ellipse cx="93.3" cy="70.2" rx="1.68" ry="1.04" fill="#C0CE4C" opacity="0.62" transform="rotate(49.32 93.3 70.2)"/><ellipse cx="157.08" cy="71.68" rx="1.9" ry="1.19" fill="#8DAA41" opacity="0.39" transform="rotate(-13.47 157.08 71.68)"/><ellipse cx="155.92" cy="73.43" rx="2.12" ry="1.4" fill="#B8C94B" opacity="0.46" transform="rotate(-22.61 155.92 73.43)"/><ellipse cx="155.93" cy="72.69" rx="2.03" ry="1.22" fill="#A7BD46" opacity="0.55" transform="rotate(38.49 155.93 72.69)"/><ellipse cx="160.07" cy="72.88" rx="2.32" ry="1.57" fill="#9CB544" opacity="0.39" transform="rotate(-2 160.07 72.88)"/><ellipse cx="162.54" cy="72.44" rx="3.16" ry="2.1" fill="#72953D" opacity="0.49" transform="rotate(-68.38 162.54 72.44)"/><ellipse cx="159.96" cy="76.81" rx="2.47" ry="1.73" fill="#94AF43" opacity="0.51" transform="rotate(41.67 159.96 76.81)"/><ellipse cx="78.67" cy="87.98" rx="2.35" ry="1.4" fill="#A7BD46" opacity="0.57" transform="rotate(51.79 78.67 87.98)"/><ellipse cx="78.69" cy="79.98" rx="2" ry="1.27" fill="#B9C94B" opacity="0.35" transform="rotate(47.13 78.69 79.98)"/><ellipse cx="83.72" cy="84.01" rx="2.23" ry="1.52" fill="#A3BB45" opacity="0.35" transform="rotate(39.25 83.72 84.01)"/><ellipse cx="110.62" cy="88.25" rx="8.93" ry="6.16" fill="#6E933C" opacity="0.5" transform="rotate(30.86 110.62 88.25)"/><ellipse cx="129.99" cy="96.53" rx="9.05" ry="5.14" fill="#70943C" opacity="0.52" transform="rotate(18.32 129.99 96.53)"/><ellipse cx="137.79" cy="98.77" rx="6.21" ry="3.41" fill="#5E8539" opacity="0.4" transform="rotate(-44.58 137.79 98.77)"/><ellipse cx="126.18" cy="96.67" rx="7.77" ry="5.08" fill="#72963D" opacity="0.49" transform="rotate(-36.7 126.18 96.67)"/><ellipse cx="125.87" cy="95.87" rx="7.28" ry="4.44" fill="#6D913C" opacity="0.34" transform="rotate(46.39 125.87 95.87)"/><ellipse cx="89.5" cy="96.46" rx="6.15" ry="3.94" fill="#8AA841" opacity="0.41" transform="rotate(11.33 89.5 96.46)"/><ellipse cx="110.03" cy="91.08" rx="9.44" ry="6.24" fill="#789B3E" opacity="0.42" transform="rotate(-50.1 110.03 91.08)"/><ellipse cx="78.46" cy="88.64" rx="10.15" ry="6.63" fill="#A9BF47" opacity="0.41" transform="rotate(55.09 78.46 88.64)"/><ellipse cx="92.86" cy="95.9" rx="8.53" ry="4.7" fill="#86A540" opacity="0.5" transform="rotate(54.78 92.86 95.9)"/><ellipse cx="39.18" cy="88.25" rx="1.46" ry="1.07" fill="#82A23F" opacity="0.42" transform="rotate(64.56 39.18 88.25)"/><ellipse cx="43.44" cy="85.39" rx="2.11" ry="1.33" fill="#85A440" opacity="0.43" transform="rotate(-25.32 43.44 85.39)"/><ellipse cx="43.33" cy="86.6" rx="1.64" ry="0.89" fill="#88A640" opacity="0.5" transform="rotate(-7.91 43.33 86.6)"/><ellipse cx="120.05" cy="94.78" rx="1.96" ry="1.25" fill="#9EB744" opacity="0.39" transform="rotate(60.94 120.05 94.78)"/><ellipse cx="122.25" cy="87.15" rx="2.18" ry="1.61" fill="#6B903C" opacity="0.39" transform="rotate(15.13 122.25 87.15)"/><ellipse cx="116.41" cy="89.78" rx="3.09" ry="1.69" fill="#89A741" opacity="0.54" transform="rotate(-27.9 116.41 89.78)"/><ellipse cx="123.69" cy="88.75" rx="2.17" ry="1.35" fill="#6D913C" opacity="0.42" transform="rotate(34.3 123.69 88.75)"/><ellipse cx="125.69" cy="89.05" rx="2.08" ry="1.5" fill="#698E3B" opacity="0.58" transform="rotate(6.38 125.69 89.05)"/><ellipse cx="131.1" cy="89.6" rx="2.23" ry="1.51" fill="#789A3E" opacity="0.5" transform="rotate(-2.54 131.1 89.6)"/><ellipse cx="190" cy="88.21" rx="2.61" ry="1.47" fill="#63893A" opacity="0.39" transform="rotate(46.2 190 88.21)"/><ellipse cx="192.98" cy="91.53" rx="2.09" ry="1.22" fill="#7D9E3E" opacity="0.55" transform="rotate(57.49 192.98 91.53)"/><ellipse cx="189.8" cy="91.75" rx="2.17" ry="1.28" fill="#70943C" opacity="0.35" transform="rotate(12.02 189.8 91.75)"/><ellipse cx="29.68" cy="90.04" rx="2.09" ry="1.45" fill="#81A13F" opacity="0.51" transform="rotate(-66.42 29.68 90.04)"/><ellipse cx="28.61" cy="85.55" rx="1.97" ry="1.04" fill="#C4D14D" opacity="0.57" transform="rotate(-39.31 28.61 85.55)"/><ellipse cx="26.32" cy="86.59" rx="1.4" ry="0.82" fill="#ACC148" opacity="0.59" transform="rotate(-49.04 26.32 86.59)"/><ellipse cx="100.1" cy="94.35" rx="8.46" ry="4.48" fill="#578038" opacity="0.33" transform="rotate(-16.91 100.1 94.35)"/><ellipse cx="109.29" cy="100.83" rx="9" ry="6.42" fill="#7B9D3E" opacity="0.34" transform="rotate(-9.57 109.29 100.83)"/><ellipse cx="102.12" cy="112.6" rx="9.88" ry="5.95" fill="#73973D" opacity="0.32" transform="rotate(27.62 102.12 112.6)"/><ellipse cx="117.13" cy="111.75" rx="9.76" ry="6.26" fill="#75983D" opacity="0.5" transform="rotate(-33.15 117.13 111.75)"/><ellipse cx="124.64" cy="91.87" rx="2.14" ry="1.18" fill="#91AD42" opacity="0.38" transform="rotate(-18.03 124.64 91.87)"/><ellipse cx="126.15" cy="91.29" rx="2.31" ry="1.24" fill="#8DAA41" opacity="0.51" transform="rotate(-57.24 126.15 91.29)"/><ellipse cx="129.05" cy="94.88" rx="2.58" ry="1.61" fill="#638A3A" opacity="0.4" transform="rotate(41.5 129.05 94.88)"/><ellipse cx="84.22" cy="93.75" rx="1.71" ry="1.25" fill="#60873A" opacity="0.52" transform="rotate(-38.77 84.22 93.75)"/><ellipse cx="84.3" cy="96.86" rx="2.53" ry="1.39" fill="#96B143" opacity="0.5" transform="rotate(-20.4 84.3 96.86)"/><ellipse cx="79.65" cy="94.95" rx="1.95" ry="1.18" fill="#91AE42" opacity="0.34" transform="rotate(46.35 79.65 94.95)"/><ellipse cx="34.63" cy="89.18" rx="2.38" ry="1.51" fill="#8EAB41" opacity="0.49" transform="rotate(10.26 34.63 89.18)"/><ellipse cx="37.47" cy="90.58" rx="1.45" ry="0.82" fill="#70943C" opacity="0.31" transform="rotate(54.5 37.47 90.58)"/><ellipse cx="32.92" cy="93.3" rx="1.95" ry="1.39" fill="#678D3B" opacity="0.5" transform="rotate(-9.99 32.92 93.3)"/><ellipse cx="25.59" cy="94.85" rx="2.21" ry="1.33" fill="#75983D" opacity="0.42" transform="rotate(53.25 25.59 94.85)"/><ellipse cx="27.7" cy="96.29" rx="2.22" ry="1.29" fill="#80A13F" opacity="0.38" transform="rotate(-2.51 27.7 96.29)"/><ellipse cx="34.26" cy="96.12" rx="3.44" ry="2.31" fill="#89A741" opacity="0.52" transform="rotate(-3.96 34.26 96.12)"/><ellipse cx="184.76" cy="95.64" rx="2.85" ry="1.9" fill="#73963D" opacity="0.53" transform="rotate(-47.15 184.76 95.64)"/><ellipse cx="183.71" cy="96.22" rx="2.45" ry="1.49" fill="#507837" opacity="0.61" transform="rotate(-19 183.71 96.22)"/><ellipse cx="181.84" cy="99.96" rx="3.66" ry="2.48" fill="#537C38" opacity="0.35" transform="rotate(-36.33 181.84 99.96)"/><ellipse cx="50.3" cy="84.69" rx="7.57" ry="5.56" fill="#8BA941" opacity="0.3" transform="rotate(-61.48 50.3 84.69)"/><ellipse cx="63.1" cy="94.21" rx="8.1" ry="5.98" fill="#578038" opacity="0.47" transform="rotate(-21 63.1 94.21)"/><ellipse cx="62.71" cy="104.09" rx="7.84" ry="5.69" fill="#A3BA45" opacity="0.32" transform="rotate(-35.92 62.71 104.09)"/><ellipse cx="70.6" cy="105.97" rx="6.78" ry="4.13" fill="#588139" opacity="0.4" transform="rotate(-62.81 70.6 105.97)"/><ellipse cx="178.15" cy="108.28" rx="7.92" ry="4.82" fill="#4B7336" opacity="0.47" transform="rotate(-58.19 178.15 108.28)"/><ellipse cx="153.71" cy="105.42" rx="9.78" ry="6.37" fill="#678C3B" opacity="0.57" transform="rotate(-39.98 153.71 105.42)"/><ellipse cx="168.04" cy="104.52" rx="8.2" ry="4.94" fill="#62893A" opacity="0.5" transform="rotate(31.59 168.04 104.52)"/><ellipse cx="161.26" cy="99.64" rx="9.35" ry="5.32" fill="#5F863A" opacity="0.34" transform="rotate(-26.36 161.26 99.64)"/><ellipse cx="187.8" cy="99.44" rx="2.49" ry="1.36" fill="#80A13F" opacity="0.33" transform="rotate(-35.72 187.8 99.44)"/><ellipse cx="185.28" cy="97.97" rx="2.38" ry="1.27" fill="#6B903C" opacity="0.52" transform="rotate(-63.28 185.28 97.97)"/><ellipse cx="182.82" cy="98.4" rx="2.15" ry="1.32" fill="#5A8239" opacity="0.4" transform="rotate(35.32 182.82 98.4)"/><ellipse cx="155.4" cy="94.55" rx="2.63" ry="1.7" fill="#779A3E" opacity="0.44" transform="rotate(44.35 155.4 94.55)"/><ellipse cx="157.61" cy="91.43" rx="2.55" ry="1.48" fill="#7E9F3F" opacity="0.56" transform="rotate(-16.46 157.61 91.43)"/><ellipse cx="161.77" cy="96.86" rx="1.98" ry="1.32" fill="#507837" opacity="0.39" transform="rotate(-61.11 161.77 96.86)"/><ellipse cx="193.72" cy="96.38" rx="2.38" ry="1.3" fill="#3C6033" opacity="0.41" transform="rotate(50.37 193.72 96.38)"/><ellipse cx="199.08" cy="99.66" rx="3.07" ry="1.84" fill="#496F36" opacity="0.41" transform="rotate(-68.26 199.08 99.66)"/><ellipse cx="186.07" cy="97.61" rx="2.46" ry="1.56" fill="#6E923C" opacity="0.35" transform="rotate(29.32 186.07 97.61)"/><ellipse cx="73.07" cy="107.31" rx="2.29" ry="1.35" fill="#91AD42" opacity="0.59" transform="rotate(-5.46 73.07 107.31)"/><ellipse cx="77.5" cy="106.2" rx="3.67" ry="2.34" fill="#8EAB42" opacity="0.61" transform="rotate(13.44 77.5 106.2)"/><ellipse cx="87.2" cy="108.82" rx="2.18" ry="1.61" fill="#6F933C" opacity="0.31" transform="rotate(10.78 87.2 108.82)"/><ellipse cx="176.18" cy="105.09" rx="1.61" ry="0.94" fill="#527A37" opacity="0.36" transform="rotate(8.74 176.18 105.09)"/><ellipse cx="178.66" cy="107.75" rx="1.76" ry="1.01" fill="#496F36" opacity="0.61" transform="rotate(47.63 178.66 107.75)"/><ellipse cx="183.68" cy="101.82" rx="1.53" ry="1.08" fill="#527B38" opacity="0.46" transform="rotate(-64.72 183.68 101.82)"/><ellipse cx="154.94" cy="107.49" rx="3.33" ry="1.87" fill="#71953D" opacity="0.56" transform="rotate(-24.63 154.94 107.49)"/><ellipse cx="151.53" cy="100.8" rx="3.17" ry="1.91" fill="#698E3B" opacity="0.3" transform="rotate(1.64 151.53 100.8)"/><ellipse cx="153.19" cy="106.1" rx="2.42" ry="1.27" fill="#557E38" opacity="0.4" transform="rotate(-16.4 153.19 106.1)"/><ellipse cx="147.67" cy="117.52" rx="10.58" ry="7.4" fill="#4B7336" opacity="0.6" transform="rotate(26.99 147.67 117.52)"/><ellipse cx="159.07" cy="104.02" rx="7.64" ry="4.97" fill="#6A8F3B" opacity="0.52" transform="rotate(3.11 159.07 104.02)"/><ellipse cx="165.36" cy="116.84" rx="7.61" ry="4.93" fill="#395C32" opacity="0.54" transform="rotate(30.02 165.36 116.84)"/><ellipse cx="157.33" cy="135.48" rx="9.32" ry="4.99" fill="#446A35" opacity="0.54" transform="rotate(23.79 157.33 135.48)"/><ellipse cx="188.32" cy="109.43" rx="9.89" ry="6.75" fill="#61873A" opacity="0.5" transform="rotate(-40.78 188.32 109.43)"/><ellipse cx="28.88" cy="113.04" rx="9.68" ry="6.19" fill="#5B8339" opacity="0.43" transform="rotate(-69.59 28.88 113.04)"/><ellipse cx="46.92" cy="117.5" rx="9.35" ry="6.74" fill="#7E9F3F" opacity="0.5" transform="rotate(-15.87 46.92 117.5)"/><ellipse cx="62.98" cy="124.43" rx="8.55" ry="5.15" fill="#76983D" opacity="0.58" transform="rotate(-40.22 62.98 124.43)"/><ellipse cx="48.02" cy="120.47" rx="9.34" ry="5.2" fill="#7C9D3E" opacity="0.5" transform="rotate(37.31 48.02 120.47)"/><ellipse cx="162.46" cy="108.23" rx="2.12" ry="1.52" fill="#61873A" opacity="0.53" transform="rotate(-11.64 162.46 108.23)"/><ellipse cx="159.75" cy="109.13" rx="1.59" ry="0.92" fill="#7E9F3F" opacity="0.49" transform="rotate(65.32 159.75 109.13)"/><ellipse cx="162.47" cy="108.06" rx="1.85" ry="1.21" fill="#416734" opacity="0.36" transform="rotate(-43.36 162.47 108.06)"/><ellipse cx="139.25" cy="107.56" rx="2.78" ry="1.48" fill="#6E923C" opacity="0.46" transform="rotate(46.85 139.25 107.56)"/><ellipse cx="145.77" cy="109.49" rx="2.66" ry="1.93" fill="#7B9D3E" opacity="0.37" transform="rotate(27.55 145.77 109.49)"/><ellipse cx="145.39" cy="107.29" rx="2.03" ry="1.13" fill="#426835" opacity="0.33" transform="rotate(-48.73 145.39 107.29)"/><ellipse cx="83.35" cy="113.96" rx="2.9" ry="2.03" fill="#7FA03F" opacity="0.56" transform="rotate(29.83 83.35 113.96)"/><ellipse cx="90.8" cy="111.29" rx="3.23" ry="1.75" fill="#73963D" opacity="0.33" transform="rotate(-60.98 90.8 111.29)"/><ellipse cx="84.79" cy="117.07" rx="2.81" ry="1.92" fill="#658B3B" opacity="0.33" transform="rotate(-13.55 84.79 117.07)"/><ellipse cx="69.64" cy="114.55" rx="2.01" ry="1.21" fill="#4D7537" opacity="0.52" transform="rotate(-0.63 69.64 114.55)"/><ellipse cx="77.3" cy="113.92" rx="2.19" ry="1.48" fill="#4A7236" opacity="0.39" transform="rotate(-53.64 77.3 113.92)"/><ellipse cx="69.7" cy="115.35" rx="2.36" ry="1.42" fill="#80A03F" opacity="0.39" transform="rotate(-0.17 69.7 115.35)"/><ellipse cx="77.58" cy="113.64" rx="2.62" ry="1.56" fill="#698E3B" opacity="0.57" transform="rotate(2.69 77.58 113.64)"/><ellipse cx="83.71" cy="120.98" rx="3.25" ry="1.74" fill="#4E7637" opacity="0.39" transform="rotate(-56.56 83.71 120.98)"/><ellipse cx="70.91" cy="121.05" rx="2.77" ry="2.01" fill="#668C3B" opacity="0.33" transform="rotate(-20.19 70.91 121.05)"/><ellipse cx="22.77" cy="119.78" rx="2.2" ry="1.15" fill="#8AA841" opacity="0.38" transform="rotate(-5.85 22.77 119.78)"/><ellipse cx="19.88" cy="122.15" rx="2" ry="1.47" fill="#4F7737" opacity="0.44" transform="rotate(-3.94 19.88 122.15)"/><ellipse cx="24.56" cy="120.77" rx="2.64" ry="1.67" fill="#9CB544" opacity="0.32" transform="rotate(-15.02 24.56 120.77)"/><ellipse cx="113.17" cy="119.27" rx="3.53" ry="2.33" fill="#5D8539" opacity="0.5" transform="rotate(-64.95 113.17 119.27)"/><ellipse cx="119.33" cy="123.67" rx="3.48" ry="2.44" fill="#507837" opacity="0.59" transform="rotate(-17 119.33 123.67)"/><ellipse cx="119.28" cy="122.71" rx="2.29" ry="1.58" fill="#77993D" opacity="0.44" transform="rotate(66.09 119.28 122.71)"/><ellipse cx="121.25" cy="121.72" rx="1.64" ry="1.02" fill="#507837" opacity="0.39" transform="rotate(23.31 121.25 121.72)"/><ellipse cx="120.68" cy="122.39" rx="1.42" ry="0.86" fill="#527B37" opacity="0.59" transform="rotate(53.95 120.68 122.39)"/><ellipse cx="120" cy="121.86" rx="2.38" ry="1.55" fill="#71943C" opacity="0.34" transform="rotate(-36.88 120 121.86)"/><ellipse cx="118.66" cy="123.13" rx="2.06" ry="1.27" fill="#365831" opacity="0.39" transform="rotate(35.54 118.66 123.13)"/><ellipse cx="107.9" cy="130.28" rx="2.54" ry="1.86" fill="#3C6133" opacity="0.52" transform="rotate(-57.39 107.9 130.28)"/><ellipse cx="116.06" cy="129.27" rx="2.32" ry="1.45" fill="#4A7136" opacity="0.49" transform="rotate(65.22 116.06 129.27)"/><ellipse cx="100.82" cy="131.59" rx="2.8" ry="1.91" fill="#456B35" opacity="0.34" transform="rotate(-2.64 100.82 131.59)"/><ellipse cx="100.52" cy="127.15" rx="2.6" ry="1.64" fill="#6A8F3B" opacity="0.5" transform="rotate(41.01 100.52 127.15)"/><ellipse cx="104.57" cy="128.54" rx="2.55" ry="1.52" fill="#385A32" opacity="0.31" transform="rotate(-28.32 104.57 128.54)"/><ellipse cx="187" cy="131.65" rx="2.5" ry="1.59" fill="#598239" opacity="0.53" transform="rotate(61.22 187 131.65)"/><ellipse cx="200.28" cy="127.75" rx="2.19" ry="1.59" fill="#335530" opacity="0.32" transform="rotate(-7.18 200.28 127.75)"/><ellipse cx="191.91" cy="126.07" rx="3.36" ry="1.97" fill="#385B32" opacity="0.48" transform="rotate(46.15 191.91 126.07)"/><ellipse cx="81.38" cy="130.55" rx="1.93" ry="1.09" fill="#567F38" opacity="0.45" transform="rotate(-61.62 81.38 130.55)"/><ellipse cx="81.76" cy="130.09" rx="2.36" ry="1.36" fill="#406534" opacity="0.39" transform="rotate(39.72 81.76 130.09)"/><ellipse cx="79.97" cy="127.76" rx="2" ry="1.21" fill="#72963D" opacity="0.5" transform="rotate(-35.6 79.97 127.76)"/><ellipse cx="53.92" cy="141.49" rx="3.44" ry="1.92" fill="#527B37" opacity="0.34" transform="rotate(-62.73 53.92 141.49)"/><ellipse cx="54.25" cy="130.13" rx="2.07" ry="1.45" fill="#385B32" opacity="0.46" transform="rotate(51.98 54.25 130.13)"/><ellipse cx="59.59" cy="135.72" rx="3.16" ry="2.07" fill="#3E6334" opacity="0.5" transform="rotate(-38.99 59.59 135.72)"/><ellipse cx="194.96" cy="134.77" rx="3.31" ry="1.79" fill="#25402A" opacity="0.32" transform="rotate(-5.56 194.96 134.77)"/><ellipse cx="188.98" cy="128.98" rx="2.26" ry="1.49" fill="#466D35" opacity="0.57" transform="rotate(-53.13 188.98 128.98)"/><ellipse cx="194.04" cy="132.87" rx="2.14" ry="1.47" fill="#2F4F2E" opacity="0.47" transform="rotate(56.28 194.04 132.87)"/><ellipse cx="143.79" cy="138.76" rx="2.56" ry="1.87" fill="#31512F" opacity="0.37" transform="rotate(-57.65 143.79 138.76)"/><ellipse cx="144.76" cy="139.01" rx="3.17" ry="2.1" fill="#3B5F33" opacity="0.36" transform="rotate(-50.57 144.76 139.01)"/><ellipse cx="138.81" cy="138.79" rx="3.09" ry="2.22" fill="#3C6133" opacity="0.35" transform="rotate(-32.5 138.81 138.79)"/><ellipse cx="183.53" cy="88.48" rx="3.72" ry="2.48" fill="#22412C" opacity="0.24713736719163454"/><ellipse cx="184.4" cy="98.15" rx="4.3" ry="3.54" fill="#22412C" opacity="0.22233560739360791"/><ellipse cx="154.94" cy="103.62" rx="3.59" ry="3.04" fill="#22412C" opacity="0.31509429544901046"/><ellipse cx="164.62" cy="107.53" rx="3.19" ry="2.1" fill="#22412C" opacity="0.2217082036731824"/><ellipse cx="142.4" cy="111.92" rx="3.18" ry="2.88" fill="#22412C" opacity="0.24568539380897494"/><ellipse cx="71.21" cy="116.85" rx="3.89" ry="2.31" fill="#22412C" opacity="0.3234149014450306"/><ellipse cx="83.07" cy="122.25" rx="4.24" ry="2.3" fill="#22412C" opacity="0.2703956658138567"/><ellipse cx="115.7" cy="125.34" rx="5.84" ry="3.73" fill="#22412C" opacity="0.2545795171025705"/><ellipse cx="120.16" cy="120.12" rx="3.2" ry="1.52" fill="#22412C" opacity="0.3379560383126504"/><ellipse cx="109.61" cy="127.4" rx="4.3" ry="3.31" fill="#22412C" opacity="0.24845975284475597"/><ellipse cx="95.03" cy="126.7" rx="4.28" ry="3.07" fill="#22412C" opacity="0.3269969441794487"/><ellipse cx="193.78" cy="126.41" rx="3.67" ry="2.14" fill="#22412C" opacity="0.33023923831132873"/><ellipse cx="76.51" cy="130.46" rx="3.22" ry="1.95" fill="#22412C" opacity="0.2254620792460665"/><ellipse cx="188.68" cy="136.06" rx="5.26" ry="2.51" fill="#22412C" opacity="0.21243544871466985"/><circle cx="92.94" cy="68.52" r="7.25" fill="#C6D24E" opacity="0.26"/><circle cx="39.75" cy="85.65" r="6.32" fill="#C6D24E" opacity="0.23"/><circle cx="28.44" cy="89.09" r="6.72" fill="#C6D24E" opacity="0.23"/><circle cx="35.2" cy="104.24" r="5.71" fill="#F4E07A"/><circle cx="33.52" cy="102.22" r="2.82" fill="#FFFFFF" opacity="0.75"/><circle cx="131.03" cy="130.57" r="5.71" fill="#F2A0B4"/><circle cx="129.35" cy="128.55" r="2.82" fill="#FFFFFF" opacity="0.75"/><circle cx="88.18" cy="128.6" r="5.71" fill="#C79BE0"/><circle cx="86.5" cy="126.59" r="2.82" fill="#FFFFFF" opacity="0.75"/><circle cx="114.76" cy="110.79" r="5.71" fill="#F2A0B4"/><circle cx="113.08" cy="108.78" r="2.82" fill="#FFFFFF" opacity="0.75"/><circle cx="143.73" cy="100.76" r="5.71" fill="#F4E07A"/><circle cx="142.05" cy="98.75" r="2.82" fill="#FFFFFF" opacity="0.75"/><circle cx="172.35" cy="122.39" r="5.71" fill="#F4E07A"/><circle cx="170.67" cy="120.38" r="2.82" fill="#FFFFFF" opacity="0.75"/><circle cx="148.48" cy="80.43" r="5.71" fill="#F08C6A"/><circle cx="146.8" cy="78.41" r="2.82" fill="#FFFFFF" opacity="0.75"/><circle cx="126.15" cy="83.74" r="5.71" fill="#F2A0B4"/><circle cx="124.47" cy="81.73" r="2.82" fill="#FFFFFF" opacity="0.75"/><circle cx="181" cy="76.4" r="5.71" fill="#F4E07A"/><circle cx="179.32" cy="74.39" r="2.82" fill="#FFFFFF" opacity="0.75"/><circle cx="179.12" cy="86.11" r="5.71" fill="#F4E07A"/><circle cx="177.44" cy="84.09" r="2.82" fill="#FFFFFF" opacity="0.75"/><circle cx="75.44" cy="134.23" r="5.71" fill="#F08C6A"/><circle cx="73.76" cy="132.21" r="2.82" fill="#FFFFFF" opacity="0.75"/></svg>