<svg xmlns="http://www.w3.org/2000/svg" width="200" height="220" viewBox="0 0 200 220"><defs><radialGradient id="r280" cx="0.5" cy="0.5" r="0.5"><stop offset="0" stop-color="#3A3226" stop-opacity="0.3"/><stop offset="0.55" stop-color="#3A3226" stop-opacity="0.2"/><stop offset="1" stop-color="#3A3226" stop-opacity="0"/></radialGradient><linearGradient id="l281" x1="0" y1="0" x2="1" y2="0.55"><stop offset="0" stop-color="#919B6E"/><stop offset="0.48" stop-color="#7C8A58"/><stop offset="1" stop-color="#6D714A"/></linearGradient><linearGradient id="l282" x1="0" y1="0" x2="1" y2="0.55"><stop offset="0" stop-color="#919B6E"/><stop offset="0.48" stop-color="#7C8A58"/><stop offset="1" stop-color="#6D714A"/></linearGradient><linearGradient id="l283" x1="0" y1="0" x2="1" y2="0.55"><stop offset="0" stop-color="#6E6054"/><stop offset="0.48" stop-color="#4A3A30"/><stop offset="1" stop-color="#4A3A2E"/></linearGradient><linearGradient id="l284" x1="0" y1="0" x2="1" y2="0.55"><stop offset="0" stop-color="#6E6054"/><stop offset="0.48" stop-color="#4A3A30"/><stop offset="1" stop-color="#4A3A2E"/></linearGradient><linearGradient id="l285" x1="0" y1="0" x2="1" y2="0.55"><stop offset="0" stop-color="#F3EAD7"/><stop offset="0.48" stop-color="#EFE6D4"/><stop offset="1" stop-color="#C1B5A4"/></linearGradient><linearGradient id="l286" x1="0" y1="0" x2="1" y2="0.55"><stop offset="0" stop-color="#F2E9D7"/><stop offset="0.48" stop-color="#F0E7D5"/><stop offset="1" stop-color="#C5BAA8"/></linearGradient><linearGradient id="l287" x1="0" y1="0" x2="1" y2="0.55"><stop offset="0" stop-color="#E0D6C4"/><stop offset="0.48" stop-color="#DBD1BF"/><stop offset="1" stop-color="#B5A998"/></linearGradient><radialGradient id="r288" cx="0.36" cy="0.32" r="0.74"><stop offset="0" stop-color="#F5D5B3"/><stop offset="0.55" stop-color="#F2CBA6"/><stop offset="1" stop-color="#CAA888"/></radialGradient></defs><path d="M 145.44 202 C 145.23 204.67, 142.77 207.76, 138.22 209.85 C 133.67 211.94, 125.58 213.7, 118.14 214.53 C 110.69 215.36, 101.14 215.57, 93.57 214.83 C 86 214.1, 77.46 212.25, 72.72 210.11 C 67.98 207.97, 65.16 204.71, 65.14 202 C 65.11 199.29, 67.82 195.97, 72.57 193.85 C 77.33 191.73, 86.05 190.04, 93.67 189.27 C 101.3 188.51, 110.7 188.5, 118.33 189.27 C 125.97 190.03, 134.96 191.72, 139.48 193.84 C 144 195.96, 145.66 199.33, 145.44 202 Z" fill="url(#r280)"/><g transform="translate(0,0)"><rect x="86.86" y="122.06" width="14.4" height="72.94" rx="6.047999999999999" fill="url(#l281)" stroke="#6B6E48" stroke-width="4.2"/><rect x="98.74" y="122.06" width="14.4" height="66.25" rx="6.047999999999999" fill="url(#l282)" stroke="#6B6E48" stroke-width="4.2"/><path d="M 104.32 196.4 C 104.27 197.42, 103.48 198.57, 102.32 199.41 C 101.15 200.25, 99.24 201.14, 97.34 201.45 C 95.43 201.76, 92.81 201.63, 90.9 201.28 C 88.99 200.94, 87.08 200.19, 85.9 199.38 C 84.71 198.56, 83.82 197.39, 83.81 196.4 C 83.81 195.41, 84.7 194.25, 85.87 193.41 C 87.03 192.58, 88.9 191.71, 90.81 191.37 C 92.71 191.04, 95.33 191.09, 97.3 191.4 C 99.27 191.72, 101.48 192.44, 102.65 193.27 C 103.82 194.1, 104.38 195.38, 104.32 196.4 Z" fill="url(#l283)" stroke="#4A392E" stroke-width="4.0" stroke-linejoin="round"/><path d="M 116.29 193.6 C 116.36 194.62, 115.76 195.92, 114.57 196.75 C 113.38 197.57, 111.09 198.25, 109.13 198.53 C 107.17 198.81, 104.72 198.75, 102.81 198.43 C 100.89 198.11, 98.86 197.43, 97.64 196.62 C 96.43 195.82, 95.49 194.6, 95.51 193.6 C 95.53 192.6, 96.56 191.46, 97.76 190.62 C 98.95 189.78, 100.75 188.9, 102.66 188.55 C 104.57 188.19, 107.33 188.16, 109.23 188.51 C 111.14 188.86, 112.92 189.78, 114.1 190.63 C 115.27 191.47, 116.21 192.58, 116.29 193.6 Z" fill="url(#l284)" stroke="#4A392E" stroke-width="4.0" stroke-linejoin="round"/><rect x="80" y="64.06" width="40" height="66" rx="12.0" fill="url(#l285)" stroke="#B7AB9A" stroke-width="4.6"/><rect x="80" y="64.06" width="40" height="9.6" rx="7.199999999999999" fill="#C4B9A7"/><rect x="68.98" y="70.06" width="10.8" height="51.6" rx="5.4" fill="url(#l286)" stroke="#B7AB9A" stroke-width="4.0"/><circle cx="74.38" cy="121.66" r="4.75" fill="#F2CBA6" stroke="#C09F80" stroke-width="3.6"/><rect x="120.22" y="70.06" width="10.8" height="51.6" rx="5.4" fill="url(#l287)" stroke="#B7AB9A" stroke-width="4.0"/><circle cx="125.62" cy="121.66" r="4.75" fill="#F2CBA6" stroke="#C09F80" stroke-width="3.6"/><path d="M 86.4 70.06 Q 100 87.66, 116.8 84.06" fill="none" stroke="#9A8464" stroke-width="7" stroke-linecap="round" stroke-linejoin="round"/><rect x="112" y="84.06" width="13.6" height="25.2" rx="5" fill="#9A8464" stroke="#826D52" stroke-width="4.0"/><path d="M 129.66 40.6 C 129.77 46.37, 127.62 53.57, 124.17 58.16 C 120.71 62.75, 114.48 66.39, 108.94 68.12 C 103.4 69.85, 96.36 70.27, 90.92 68.55 C 85.48 66.83, 79.82 62.47, 76.31 57.81 C 72.81 53.15, 69.94 46.36, 69.91 40.6 C 69.88 34.84, 72.68 28.05, 76.14 23.26 C 79.6 18.47, 85.16 13.68, 90.67 11.87 C 96.17 10.06, 103.7 10.44, 109.17 12.38 C 114.63 14.33, 120.05 18.85, 123.47 23.55 C 126.88 28.25, 129.54 34.83, 129.66 40.6 Z" fill="url(#r288)" stroke="#C09F80" stroke-width="4.6" stroke-linejoin="round"/><path d="M 112.33 10.41 C 112.29 12.81, 111.23 15.57, 109.81 17.54 C 108.4 19.51, 106.11 21.48, 103.84 22.24 C 101.58 23, 98.49 22.86, 96.21 22.08 C 93.92 21.31, 91.63 19.52, 90.14 17.57 C 88.65 15.62, 87.33 12.84, 87.27 10.41 C 87.21 7.98, 88.31 4.99, 89.78 2.99 C 91.26 0.98, 93.74 -0.83, 96.1 -1.6 C 98.45 -2.37, 101.59 -2.41, 103.91 -1.62 C 106.23 -0.84, 108.62 1.12, 110.02 3.13 C 111.42 5.13, 112.36 8.01, 112.33 10.41 Z" fill="#5A3A24" stroke="#553925" stroke-width="4.0" stroke-linejoin="round"/><path d="M 101.82 6.86 C 101.81 8.02, 101.31 9.39, 100.62 10.32 C 99.93 11.25, 98.76 12.08, 97.67 12.43 C 96.57 12.78, 95.13 12.79, 94.04 12.44 C 92.95 12.08, 91.82 11.23, 91.12 10.3 C 90.42 9.37, 89.84 8, 89.84 6.86 C 89.85 5.71, 90.47 4.41, 91.16 3.44 C 91.85 2.48, 92.89 1.4, 93.97 1.06 C 95.05 0.71, 96.52 0.98, 97.64 1.37 C 98.76 1.75, 99.99 2.43, 100.69 3.35 C 101.38 4.26, 101.83 5.69, 101.82 6.86 Z" fill="#856B55"/><path d="M 129.66 40.6 C 129.77 46.37, 127.62 53.57, 124.17 58.16 C 120.71 62.75, 114.48 66.39, 108.94 68.12 C 103.4 69.85, 96.36 70.27, 90.92 68.55 C 85.48 66.83, 79.82 62.47, 76.31 57.81 C 72.81 53.15, 69.94 46.36, 69.91 40.6 C 69.88 34.84, 72.68 28.05, 76.14 23.26 C 79.6 18.47, 85.16 13.68, 90.67 11.87 C 96.17 10.06, 103.7 10.44, 109.17 12.38 C 114.63 14.33, 120.05 18.85, 123.47 23.55 C 126.88 28.25, 129.54 34.83, 129.66 40.6 Z" fill="#5A3A24" stroke="#553925" stroke-width="4.6" stroke-linejoin="round"/><path d="M 105.06 30.54 C 105.11 33.2, 103.88 36.44, 102.27 38.64 C 100.67 40.84, 97.99 42.85, 95.4 43.72 C 92.82 44.59, 89.36 44.71, 86.79 43.86 C 84.22 43.01, 81.5 40.85, 79.98 38.63 C 78.45 36.41, 77.7 33.26, 77.67 30.54 C 77.64 27.81, 78.25 24.47, 79.79 22.3 C 81.32 20.13, 84.29 18.32, 86.89 17.51 C 89.49 16.7, 92.86 16.58, 95.38 17.44 C 97.89 18.3, 100.36 20.46, 101.98 22.65 C 103.59 24.83, 105.01 27.87, 105.06 30.54 Z" fill="#7E644E"/></g></svg>