<svg xmlns="http://www.w3.org/2000/svg" width="198" height="217" viewBox="0 0 198 217"><defs><radialGradient id="r262" cx="0.5" cy="0.5" r="0.5"><stop offset="0" stop-color="#3A3226" stop-opacity="0.3"/><stop offset="0.55" stop-color="#3A3226" stop-opacity="0.2"/><stop offset="1" stop-color="#3A3226" stop-opacity="0"/></radialGradient><linearGradient id="l263" x1="0" y1="0" x2="1" y2="0.55"><stop offset="0" stop-color="#858E9A"/><stop offset="0.48" stop-color="#6E7A8C"/><stop offset="1" stop-color="#63666E"/></linearGradient><linearGradient id="l264" x1="0" y1="0" x2="1" y2="0.55"><stop offset="0" stop-color="#858E9A"/><stop offset="0.48" stop-color="#6E7A8C"/><stop offset="1" stop-color="#63666E"/></linearGradient><linearGradient id="l265" x1="0" y1="0" x2="1" y2="0.55"><stop offset="0" stop-color="#6E6054"/><stop offset="0.48" stop-color="#4A3A30"/><stop offset="1" stop-color="#4A3A2E"/></linearGradient><linearGradient id="l266" x1="0" y1="0" x2="1" y2="0.55"><stop offset="0" stop-color="#6E6054"/><stop offset="0.48" stop-color="#4A3A30"/><stop offset="1" stop-color="#4A3A2E"/></linearGradient><linearGradient id="l267" x1="0" y1="0" x2="1" y2="0.55"><stop offset="0" stop-color="#E0E5E7"/><stop offset="0.48" stop-color="#D7E0E8"/><stop offset="1" stop-color="#B0B1B2"/></linearGradient><linearGradient id="l268" x1="0" y1="0" x2="1" y2="0.55"><stop offset="0" stop-color="#DFE5E7"/><stop offset="0.48" stop-color="#DAE2E8"/><stop offset="1" stop-color="#B5B6B6"/></linearGradient><linearGradient id="l269" x1="0" y1="0" x2="1" y2="0.55"><stop offset="0" stop-color="#CED2D3"/><stop offset="0.48" stop-color="#C6CCD1"/><stop offset="1" stop-color="#A6A6A5"/></linearGradient><radialGradient id="r270" cx="0.36" cy="0.32" r="0.74"><stop offset="0" stop-color="#F3D2B2"/><stop offset="0.55" stop-color="#F0C7A4"/><stop offset="1" stop-color="#C8A586"/></radialGradient></defs><ellipse cx="104.94" cy="200" rx="39.9" ry="13.38" fill="url(#r262)"/><g transform="translate(0,0)"><rect x="81.58" y="120.8" width="14.26" height="72.27" rx="5.98752" fill="url(#l263)" stroke="#62646A" stroke-width="4.2"/><rect x="102.17" y="120.8" width="14.26" height="72.27" rx="5.98752" fill="url(#l264)" stroke="#62646A" stroke-width="4.2"/><ellipse cx="88.7" cy="194.44" rx="10.26" ry="5.15" fill="url(#l265)" stroke="#4A392E" stroke-width="4.0"/><ellipse cx="109.3" cy="194.44" rx="10.26" ry="5.15" fill="url(#l266)" stroke="#4A392E" stroke-width="4.0"/><rect x="79.2" y="63.4" width="39.6" height="65.4" rx="11.88" fill="url(#l267)" stroke="#A7A7A7" stroke-width="4.6"/><rect x="79.2" y="63.4" width="39.6" height="9.5" rx="7.128" fill="#B2B4B6"/><rect x="71.93" y="69.4" width="10.69" height="51.08" rx="5.346000000000001" fill="url(#l268)" stroke="#A7A7A7" stroke-width="4.0"/><circle cx="77.28" cy="120.48" r="4.7" fill="#F0C7A4" stroke="#BE9C7F" stroke-width="3.6"/><rect x="115.38" y="69.4" width="10.69" height="51.08" rx="5.346000000000001" fill="url(#l269)" stroke="#A7A7A7" stroke-width="4.0"/><circle cx="120.72" cy="120.48" r="4.7" fill="#F0C7A4" stroke="#BE9C7F" stroke-width="3.6"/><circle cx="99" cy="40.19" r="29.3" fill="url(#r270)" stroke="#BE9C7F" stroke-width="4.6"/><ellipse cx="89.04" cy="44.3" rx="3.52" ry="4.98" fill="#3A2F28"/><circle cx="87.86" cy="42.54" r="1.32" fill="#FFFFFF" opacity="0.9"/><ellipse cx="82" cy="51.92" rx="4.69" ry="2.93" fill="#F0A08E" opacity="0.55"/><ellipse cx="108.96" cy="44.3" rx="3.52" ry="4.98" fill="#3A2F28"/><circle cx="107.79" cy="42.54" r="1.32" fill="#FFFFFF" opacity="0.9"/><ellipse cx="116" cy="51.92" rx="4.69" ry="2.93" fill="#F0A08E" opacity="0.55"/><path d="M 94.31 57.19 Q 99 61.88, 103.69 57.19" fill="none" stroke="#AA8B70" stroke-width="3.4" stroke-linecap="round" stroke-linejoin="round"/><path d="M 69.7 43.12 A 29.3 29.3 0 0 1 128.3 43.12 L 127.72 78.29 Q 116.58 57.78, 117.17 37.26 L 80.83 37.26 Z" fill="#4A3222" stroke="#4A3424" stroke-width="4.0" stroke-linecap="round" stroke-linejoin="round"/><path d="M 70.28 43.12 Q 78.49 63.64, 72.04 78.29 L 81.42 46.05 Z" fill="#4A3222" stroke="#4A3424" stroke-width="4.0" stroke-linecap="round" stroke-linejoin="round"/><path d="M 72.04 31.4 Q 85.52 10.3, 108.96 14.99 Q 93.14 22.03, 72.04 31.4 Z" fill="#806D5C" opacity="0.85"/><path d="M 107.79 16.75 Q 125.96 28.47, 127.72 41.95" fill="none" stroke="#4A3424" stroke-width="7" stroke-linecap="round" stroke-linejoin="round"/><ellipse cx="99" cy="24.96" rx="47.47" ry="12.31" fill="#E4C98C" stroke="#B69E6E" stroke-width="4.0"/><ellipse cx="99" cy="27.3" rx="44.54" ry="8.79" fill="#C5AC78"/><path d="M 75.56 23.78 A 23.44 23.44 0 0 1 122.44 23.78 Z" fill="#E4C98C" stroke="#B69E6E" stroke-width="4.0" stroke-linecap="round" stroke-linejoin="round"/><path d="M 80.83 19.68 A 18.17 18.17 0 0 1 101.93 14.99 Z" fill="#EBD5A2"/><rect x="75.56" y="18.51" width="46.89" height="5.86" rx="3" fill="#C98B6A"/></g></svg>