<svg xmlns="http://www.w3.org/2000/svg" width="192" height="211" viewBox="0 0 192 211"><defs><radialGradient id="r289" cx="0.5" cy="0.5" r="0.5"><stop offset="0" stop-color="#3A3226" stop-opacity="0.3"/><stop offset="0.55" stop-color="#3A3226" stop-opacity="0.2"/><stop offset="1" stop-color="#3A3226" stop-opacity="0"/></radialGradient><linearGradient id="l290" x1="0" y1="0" x2="1" y2="0.55"><stop offset="0" stop-color="#686F75"/><stop offset="0.48" stop-color="#4B5560"/><stop offset="1" stop-color="#4B4C4F"/></linearGradient><linearGradient id="l291" x1="0" y1="0" x2="1" y2="0.55"><stop offset="0" stop-color="#686F75"/><stop offset="0.48" stop-color="#4B5560"/><stop offset="1" stop-color="#4B4C4F"/></linearGradient><linearGradient id="l292" x1="0" y1="0" x2="1" y2="0.55"><stop offset="0" stop-color="#6E6054"/><stop offset="0.48" stop-color="#4A3A30"/><stop offset="1" stop-color="#4A3A2E"/></linearGradient><linearGradient id="l293" x1="0" y1="0" x2="1" y2="0.55"><stop offset="0" stop-color="#6E6054"/><stop offset="0.48" stop-color="#4A3A30"/><stop offset="1" stop-color="#4A3A2E"/></linearGradient><linearGradient id="l294" x1="0" y1="0" x2="1" y2="0.55"><stop offset="0" stop-color="#C19D63"/><stop offset="0.48" stop-color="#B0843F"/><stop offset="1" stop-color="#936F39"/></linearGradient><linearGradient id="l295" x1="0" y1="0" x2="1" y2="0.55"><stop offset="0" stop-color="#C09C61"/><stop offset="0.48" stop-color="#B68D4C"/><stop offset="1" stop-color="#9A7743"/></linearGradient><linearGradient id="l296" x1="0" y1="0" x2="1" y2="0.55"><stop offset="0" stop-color="#B18C53"/><stop offset="0.48" stop-color="#A47B3C"/><stop offset="1" stop-color="#8D6A37"/></linearGradient><radialGradient id="r297" cx="0.36" cy="0.32" r="0.74"><stop offset="0" stop-color="#EDC9A5"/><stop offset="0.55" stop-color="#E8BC94"/><stop offset="1" stop-color="#C29C7A"/></radialGradient></defs><ellipse cx="101.76" cy="194" rx="38.69" ry="12.98" fill="url(#r289)"/><g transform="translate(0,0)"><rect x="79.1" y="117.01" width="13.82" height="70.27" rx="5.806080000000001" fill="url(#l290)" stroke="#4B4B4D" stroke-width="4.2"/><rect x="99.07" y="117.01" width="13.82" height="70.27" rx="5.806080000000001" fill="url(#l291)" stroke="#4B4B4D" stroke-width="4.2"/><ellipse cx="86.02" cy="188.54" rx="9.95" ry="4.99" fill="url(#l292)" stroke="#4A392E" stroke-width="4.0"/><ellipse cx="105.98" cy="188.54" rx="9.95" ry="4.99" fill="url(#l293)" stroke="#4A392E" stroke-width="4.0"/><rect x="76.8" y="61.41" width="38.4" height="63.6" rx="11.520000000000001" fill="url(#l294)" stroke="#8D6A37" stroke-width="4.6"/><rect x="76.8" y="61.41" width="38.4" height="9.22" rx="6.912000000000001" fill="#957039"/><rect x="69.75" y="67.41" width="10.37" height="49.54" rx="5.184000000000001" fill="url(#l295)" stroke="#8D6A37" stroke-width="4.0"/><circle cx="74.93" cy="116.95" r="4.56" fill="#E8BC94" stroke="#B99474" stroke-width="3.6"/><rect x="111.88" y="67.41" width="10.37" height="49.54" rx="5.184000000000001" fill="url(#l296)" stroke="#8D6A37" stroke-width="4.0"/><circle cx="117.07" cy="116.95" r="4.56" fill="#E8BC94" stroke="#B99474" stroke-width="3.6"/><circle cx="96" cy="38.98" r="28.42" fill="url(#r297)" stroke="#B99474" stroke-width="4.6"/><circle cx="96" cy="38.98" r="28.42" fill="#8A8A88" stroke="#767069" stroke-width="4.6"/><circle cx="87.48" cy="29.31" r="13.07" fill="#A4A29C"/></g></svg>