<svg xmlns="http://www.w3.org/2000/svg" width="228" height="250" viewBox="0 0 228 250"><ellipse cx="120.84" cy="230" rx="47.36" ry="15.89" fill="#3A3226" opacity="0.05"/><ellipse cx="120.84" cy="230" rx="40.29" ry="13.52" fill="#3A3226" opacity="0.07"/><ellipse cx="120.84" cy="230" rx="35.34" ry="11.86" fill="#3A3226" opacity="0.1"/><ellipse cx="114" cy="230" rx="51.3" ry="17.78" fill="#FFC963" opacity="0.3"/><ellipse cx="114" cy="230" rx="51.3" ry="17.78" fill="none" stroke="#FFC963" stroke-width="9.8" opacity="0.55"/><ellipse cx="114" cy="230" rx="37.62" ry="12.77" fill="#FFC963" opacity="0.22"/><g transform="translate(0,0)"><rect x="93.94" y="139.7" width="16.42" height="82.32" rx="6.8947199999999995" fill="#37697A" stroke="#4A3A30" stroke-width="6.1"/><rect x="117.65" y="139.7" width="16.42" height="82.32" rx="6.8947199999999995" fill="#37697A" stroke="#4A3A30" stroke-width="6.1"/><ellipse cx="102.14" cy="223.9" rx="11.82" ry="5.93" fill="#4A3A30" stroke="#4A3A30" stroke-width="6.1"/><ellipse cx="125.86" cy="223.9" rx="11.82" ry="5.93" fill="#4A3A30" stroke="#4A3A30" stroke-width="6.1"/><rect x="91.2" y="73.3" width="45.6" height="74.4" rx="13.68" fill="#E8A23C" stroke="#4A3A30" stroke-width="6.9"/><rect x="109.44" y="77.3" width="9.12" height="42.41" rx="6" fill="#FFFFFF" opacity="0.22"/><rect x="82.83" y="79.3" width="12.31" height="58.82" rx="6.156000000000001" fill="#E8A23C" stroke="#4A3A30" stroke-width="6.1"/><circle cx="88.98" cy="138.13" r="5.42" fill="#F3C9A2" stroke="#4A3A30" stroke-width="5.4"/><rect x="132.86" y="79.3" width="12.31" height="58.82" rx="6.156000000000001" fill="#E8A23C" stroke="#4A3A30" stroke-width="6.1"/><circle cx="139.02" cy="138.13" r="5.42" fill="#F3C9A2" stroke="#4A3A30" stroke-width="5.4"/><circle cx="114" cy="46.28" r="33.74" fill="#F3C9A2" stroke="#4A3A30" stroke-width="6.9"/><ellipse cx="102.53" cy="50.33" rx="3.37" ry="5.06" fill="#3A2F28"/><ellipse cx="125.47" cy="50.33" rx="3.37" ry="5.06" fill="#3A2F28"/><ellipse cx="95.1" cy="58.43" rx="5.06" ry="3.37" fill="#F0A08E" opacity="0.55"/><ellipse cx="132.9" cy="58.43" rx="5.06" ry="3.37" fill="#F0A08E" opacity="0.55"/><path d="M 108.6 64.51 Q 114 69.9, 119.4 64.51" fill="none" stroke="#8A5A4A" stroke-width="5.9" stroke-linecap="round" stroke-linejoin="round"/><path d="M 79.58 47.63 A 34.42 34.42 0 0 1 148.42 47.63 Q 137.62 38.86, 117.37 36.16 Q 97.13 42.91, 79.58 47.63 Z" fill="#6B4225" stroke="#4A3A30" stroke-width="6.1" stroke-linecap="round" stroke-linejoin="round"/><path d="M 89.7 28.74 Q 103.88 17.26, 120.75 21.31" fill="none" stroke="#FFFFFF" stroke-width="7.4" stroke-linecap="round" stroke-linejoin="round" opacity="0.22"/></g></svg>