<svg xmlns="http://www.w3.org/2000/svg" width="1064" height="1138" viewBox="0 0 1064 1138"><defs><radialGradient id="r165" cx="0.5" cy="0.5" r="0.5"><stop offset="0" stop-color="#3A3226" stop-opacity="0.3"/><stop offset="0.55" stop-color="#3A3226" stop-opacity="0.2"/><stop offset="1" stop-color="#3A3226" stop-opacity="0"/></radialGradient><linearGradient id="l166" x1="0" y1="0" x2="0" y2="1"><stop offset="0" stop-color="#A89981"/><stop offset="1" stop-color="#8F7F69"/></linearGradient><linearGradient id="l167" x1="0" y1="0" x2="0" y2="1"><stop offset="0" stop-color="#EDE1C6"/><stop offset="1" stop-color="#CEBFA4"/></linearGradient><linearGradient id="l168" x1="0" y1="0" x2="0" y2="1"><stop offset="0" stop-color="#6E6455"/><stop offset="1" stop-color="#4A3E30"/></linearGradient><linearGradient id="l169" x1="0" y1="0" x2="0" y2="1"><stop offset="0" stop-color="#6E6455"/><stop offset="1" stop-color="#4A3E30"/></linearGradient><linearGradient id="l170" x1="0" y1="0" x2="0" y2="1"><stop offset="0" stop-color="#6E6455"/><stop offset="1" stop-color="#4A3E30"/></linearGradient><linearGradient id="l171" x1="0" y1="0" x2="0" y2="1"><stop offset="0" stop-color="#6E6455"/><stop offset="1" stop-color="#4A3E30"/></linearGradient></defs><ellipse cx="558.4" cy="889.2" rx="456.8" ry="125.79" fill="url(#r165)"/><g transform="matrix(1,-0.5,0,1,622,618.4)"><rect x="0" y="0" width="332.8" height="450" fill="url(#l166)"/><rect x="0" y="0" width="332.8" height="34" fill="#867560"/><rect x="60" y="270" width="72" height="92" rx="3" fill="#8E9492"/><rect x="64" y="274" width="22" height="84" fill="#FFFFFF" opacity="0.1"/><rect x="226.4" y="270" width="72" height="92" rx="3" fill="#8E9492"/><rect x="230.4" y="274" width="22" height="84" fill="#FFFFFF" opacity="0.1"/><rect x="60" y="56" width="72" height="92" rx="3" fill="#8E9492"/><rect x="64" y="60" width="22" height="84" fill="#FFFFFF" opacity="0.1"/><rect x="226.4" y="56" width="72" height="92" rx="3" fill="#8E9492"/><rect x="230.4" y="60" width="22" height="84" fill="#FFFFFF" opacity="0.1"/></g><g transform="matrix(1,0.5,0,1,110,362.4)"><rect x="0" y="0" width="512" height="450" fill="url(#l167)"/><rect x="0" y="0" width="512" height="30" fill="#BEAF96"/><rect x="0" y="30" width="512" height="18" fill="#D4C6AA"/><rect x="422.57" y="381.22" width="30.26" height="14.27" rx="9" fill="#E9DBBF" opacity="0.28"/><rect x="369.29" y="304.95" width="54.79" height="17.62" rx="9" fill="#DED0B4" opacity="0.28"/><rect x="267.83" y="258.45" width="51.25" height="15.38" rx="9" fill="#E9DBBF" opacity="0.28"/><rect x="190.36" y="181.67" width="56.92" height="27.92" rx="9" fill="#DED0B4" opacity="0.28"/><rect x="419.63" y="235.9" width="45.79" height="17.02" rx="9" fill="#E9DBBF" opacity="0.28"/><rect x="15.88" y="49.88" width="46.6" height="17.78" rx="9" fill="#DED0B4" opacity="0.28"/><rect x="167.97" y="361.04" width="49.03" height="21.41" rx="9" fill="#E9DBBF" opacity="0.28"/><rect x="104.37" y="48.59" width="41.01" height="15.05" rx="9" fill="#DED0B4" opacity="0.28"/><rect x="225.52" y="399.53" width="54.98" height="15.73" rx="9" fill="#E9DBBF" opacity="0.28"/><rect x="394.96" y="326.83" width="57.38" height="26.6" rx="9" fill="#DED0B4" opacity="0.28"/><rect x="337.2" y="324.31" width="42.15" height="27.71" rx="9" fill="#E9DBBF" opacity="0.28"/><rect x="425.16" y="98.03" width="58.16" height="23.73" rx="9" fill="#DED0B4" opacity="0.28"/><rect x="203.94" y="230.93" width="47.6" height="26.87" rx="9" fill="#E9DBBF" opacity="0.28"/><rect x="221.37" y="339.35" width="42.16" height="26.24" rx="9" fill="#DED0B4" opacity="0.28"/><rect x="397.67" y="205.96" width="50.71" height="26.8" rx="9" fill="#E9DBBF" opacity="0.28"/><rect x="319.91" y="215.18" width="36.87" height="17.87" rx="9" fill="#DED0B4" opacity="0.28"/><rect x="309.21" y="99.79" width="64.32" height="17.02" rx="9" fill="#E9DBBF" opacity="0.28"/><rect x="1" y="31" width="126" height="150" rx="5" fill="#CCBEA3"/><rect x="1" y="31" width="126" height="9" rx="4" fill="#B8A990"/><rect x="10" y="42" width="108" height="124" rx="2" fill="#34291E"/><rect x="13" y="45" width="102" height="118" fill="url(#l168)"/><rect x="18" y="82" width="92" height="82" fill="#8A6A42" opacity="0.55"/><circle cx="64" cy="100" r="26" fill="#FFD98A" opacity="0.24"/><rect x="13" y="45" width="34" height="118" fill="#DCE8EE" opacity="0.42"/><rect x="13" y="45" width="102" height="20" fill="#DCE8EE" opacity="0.22"/><rect x="62" y="44" width="5" height="122" fill="#F1E5CB"/><rect x="12" y="102" width="104" height="5" fill="#F1E5CB"/><circle cx="-0.35" cy="163.86" r="6.89" fill="#365E39"/><circle cx="5.82" cy="165.03" r="5.79" fill="#365E39"/><circle cx="12.61" cy="165.53" r="5.28" fill="#365E39"/><circle cx="17.83" cy="165.07" r="6.84" fill="#365E39"/><circle cx="26.49" cy="162.45" r="6.55" fill="#365E39"/><circle cx="33.9" cy="167.45" r="4.98" fill="#365E39"/><circle cx="40.98" cy="162.35" r="6.13" fill="#365E39"/><circle cx="46.09" cy="163.36" r="6.69" fill="#365E39"/><circle cx="52.43" cy="165.13" r="6.63" fill="#365E39"/><circle cx="59.98" cy="163.26" r="6.7" fill="#365E39"/><circle cx="67.69" cy="166.3" r="4.58" fill="#365E39"/><circle cx="74.45" cy="163.03" r="6.18" fill="#365E39"/><circle cx="80.33" cy="167.73" r="4.56" fill="#365E39"/><circle cx="89.92" cy="162.13" r="5.14" fill="#365E39"/><circle cx="97.25" cy="162.94" r="4.96" fill="#365E39"/><circle cx="103.77" cy="164.31" r="4.61" fill="#365E39"/><circle cx="111.96" cy="162.91" r="4.59" fill="#365E39"/><circle cx="116.38" cy="165.69" r="6.36" fill="#365E39"/><circle cx="122.45" cy="164.02" r="4.58" fill="#365E39"/><circle cx="130.79" cy="166.6" r="6.35" fill="#365E39"/><circle cx="1.61" cy="163.78" r="5.12" fill="#527B3C"/><circle cx="9.42" cy="162.36" r="3.85" fill="#527B3C"/><circle cx="17.84" cy="161.58" r="3.6" fill="#527B3C"/><circle cx="25.59" cy="164.37" r="3.66" fill="#527B3C"/><circle cx="34.74" cy="161.96" r="4.43" fill="#527B3C"/><circle cx="41.58" cy="164.8" r="3.92" fill="#527B3C"/><circle cx="52.02" cy="162.1" r="3.44" fill="#527B3C"/><circle cx="60.43" cy="160.7" r="3.51" fill="#527B3C"/><circle cx="66.93" cy="160.81" r="3.59" fill="#527B3C"/><circle cx="77.94" cy="162.54" r="5.37" fill="#527B3C"/><circle cx="87.74" cy="164.97" r="3.86" fill="#527B3C"/><circle cx="94.38" cy="161.25" r="4.58" fill="#527B3C"/><circle cx="103.7" cy="164" r="4.82" fill="#527B3C"/><circle cx="110.83" cy="162.12" r="4.45" fill="#527B3C"/><circle cx="118.42" cy="160.18" r="4.22" fill="#527B3C"/><circle cx="127.44" cy="163.62" r="3.88" fill="#527B3C"/><circle cx="-0.4" cy="159.27" r="3.2" fill="#F4E07A"/><circle cx="14.63" cy="158.17" r="3.2" fill="#8FB8EA"/><circle cx="31.79" cy="160.17" r="3.2" fill="#8FB8EA"/><circle cx="46.28" cy="162.79" r="3.2" fill="#F4E07A"/><circle cx="63.37" cy="161.04" r="3.2" fill="#F08C6A"/><circle cx="74.13" cy="162.14" r="3.2" fill="#C79BE0"/><circle cx="94.57" cy="162.07" r="3.2" fill="#F2A0B4"/><circle cx="107.98" cy="161.36" r="3.2" fill="#F2A0B4"/><circle cx="122.12" cy="164.45" r="3.2" fill="#F08C6A"/><rect x="-5" y="170" width="138" height="26" rx="4" fill="#C48C52"/><rect x="-5" y="170" width="138" height="6" rx="4" fill="#D3A877"/><rect x="-5" y="190" width="138" height="6" rx="3" fill="#9F7345"/><rect x="-5" y="196" width="138" height="12" fill="#2A2018" opacity="0.26"/><rect x="129" y="31" width="126" height="150" rx="5" fill="#CCBEA3"/><rect x="129" y="31" width="126" height="9" rx="4" fill="#B8A990"/><rect x="138" y="42" width="108" height="124" rx="2" fill="#34291E"/><rect x="141" y="45" width="102" height="118" fill="url(#l169)"/><rect x="146" y="82" width="92" height="82" fill="#8A6A42" opacity="0.55"/><circle cx="192" cy="100" r="26" fill="#FFD98A" opacity="0.24"/><rect x="141" y="45" width="34" height="118" fill="#DCE8EE" opacity="0.42"/><rect x="141" y="45" width="102" height="20" fill="#DCE8EE" opacity="0.22"/><rect x="190" y="44" width="5" height="122" fill="#F1E5CB"/><rect x="140" y="102" width="104" height="5" fill="#F1E5CB"/><circle cx="125.47" cy="166.14" r="6.83" fill="#365E39"/><circle cx="132.23" cy="167.25" r="5.53" fill="#365E39"/><circle cx="138.42" cy="163.19" r="6.44" fill="#365E39"/><circle cx="148.3" cy="166.87" r="4.65" fill="#365E39"/><circle cx="154.55" cy="164.78" r="6.72" fill="#365E39"/><circle cx="161.45" cy="162.03" r="4.56" fill="#365E39"/><circle cx="167.22" cy="166.34" r="5.05" fill="#365E39"/><circle cx="174.96" cy="162.69" r="5.43" fill="#365E39"/><circle cx="182.86" cy="162.84" r="5.36" fill="#365E39"/><circle cx="190.55" cy="163.52" r="4.81" fill="#365E39"/><circle cx="196.47" cy="164.01" r="5.48" fill="#365E39"/><circle cx="201.85" cy="162.63" r="6.05" fill="#365E39"/><circle cx="209.88" cy="162.26" r="6.26" fill="#365E39"/><circle cx="216.16" cy="167.76" r="4.85" fill="#365E39"/><circle cx="223.5" cy="164.91" r="6.66" fill="#365E39"/><circle cx="231.88" cy="166.37" r="5.55" fill="#365E39"/><circle cx="237.97" cy="166.08" r="5.49" fill="#365E39"/><circle cx="243.63" cy="165.58" r="5.87" fill="#365E39"/><circle cx="252.78" cy="166.2" r="4.71" fill="#365E39"/><circle cx="259.91" cy="165.45" r="4.68" fill="#365E39"/><circle cx="126.7" cy="162.73" r="5.01" fill="#527B3C"/><circle cx="138.19" cy="163.99" r="5.22" fill="#527B3C"/><circle cx="145.93" cy="164.05" r="3.48" fill="#527B3C"/><circle cx="155.7" cy="161.95" r="4.82" fill="#527B3C"/><circle cx="163.94" cy="161.65" r="3.75" fill="#527B3C"/><circle cx="170.15" cy="160.78" r="5.37" fill="#527B3C"/><circle cx="181.48" cy="162.12" r="4.06" fill="#527B3C"/><circle cx="187.19" cy="162.57" r="3.74" fill="#527B3C"/><circle cx="195.43" cy="164.74" r="3.87" fill="#527B3C"/><circle cx="206.9" cy="161.79" r="4.93" fill="#527B3C"/><circle cx="214.92" cy="162.33" r="4.84" fill="#527B3C"/><circle cx="223.84" cy="161.92" r="4.87" fill="#527B3C"/><circle cx="230.77" cy="160.27" r="3.95" fill="#527B3C"/><circle cx="238.81" cy="163.66" r="4.22" fill="#527B3C"/><circle cx="248.99" cy="161.8" r="4.5" fill="#527B3C"/><circle cx="257.85" cy="164.56" r="3.56" fill="#527B3C"/><circle cx="131.92" cy="163.08" r="3.2" fill="#F08C6A"/><circle cx="145.73" cy="160.82" r="3.2" fill="#8FB8EA"/><circle cx="159.3" cy="164.17" r="3.2" fill="#F2A0B4"/><circle cx="173.88" cy="161.67" r="3.2" fill="#C79BE0"/><circle cx="190.9" cy="163.71" r="3.2" fill="#F2A0B4"/><circle cx="204.42" cy="159.52" r="3.2" fill="#F08C6A"/><circle cx="220.64" cy="164.34" r="3.2" fill="#F2A0B4"/><circle cx="234.34" cy="161.9" r="3.2" fill="#F4E07A"/><circle cx="248.65" cy="164.45" r="3.2" fill="#F08C6A"/><rect x="123" y="170" width="138" height="26" rx="4" fill="#C48C52"/><rect x="123" y="170" width="138" height="6" rx="4" fill="#D3A877"/><rect x="123" y="190" width="138" height="6" rx="3" fill="#9F7345"/><rect x="123" y="196" width="138" height="12" fill="#2A2018" opacity="0.26"/><rect x="257" y="31" width="126" height="150" rx="5" fill="#CCBEA3"/><rect x="257" y="31" width="126" height="9" rx="4" fill="#B8A990"/><rect x="266" y="42" width="108" height="124" rx="2" fill="#34291E"/><rect x="269" y="45" width="102" height="118" fill="url(#l170)"/><rect x="274" y="82" width="92" height="82" fill="#8A6A42" opacity="0.55"/><circle cx="320" cy="100" r="26" fill="#FFD98A" opacity="0.24"/><rect x="269" y="45" width="34" height="118" fill="#DCE8EE" opacity="0.42"/><rect x="269" y="45" width="102" height="20" fill="#DCE8EE" opacity="0.22"/><rect x="318" y="44" width="5" height="122" fill="#F1E5CB"/><rect x="268" y="102" width="104" height="5" fill="#F1E5CB"/><circle cx="252.77" cy="166.83" r="4.84" fill="#365E39"/><circle cx="261.45" cy="164.61" r="5.13" fill="#365E39"/><circle cx="268.26" cy="164.8" r="5.01" fill="#365E39"/><circle cx="276.87" cy="162.44" r="4.51" fill="#365E39"/><circle cx="281.94" cy="167.02" r="6.15" fill="#365E39"/><circle cx="290.02" cy="164.91" r="6.19" fill="#365E39"/><circle cx="295.34" cy="163.6" r="5.76" fill="#365E39"/><circle cx="301.11" cy="162.48" r="6.38" fill="#365E39"/><circle cx="308.69" cy="166.5" r="6.46" fill="#365E39"/><circle cx="316.62" cy="166.05" r="6.47" fill="#365E39"/><circle cx="325.46" cy="162.81" r="4.91" fill="#365E39"/><circle cx="330.53" cy="164.79" r="5.24" fill="#365E39"/><circle cx="336.04" cy="165.34" r="6.92" fill="#365E39"/><circle cx="344.47" cy="165.23" r="5.46" fill="#365E39"/><circle cx="351.77" cy="167.22" r="5.27" fill="#365E39"/><circle cx="359.6" cy="164.9" r="5.85" fill="#365E39"/><circle cx="367.66" cy="162.46" r="6.56" fill="#365E39"/><circle cx="372.22" cy="165.88" r="6.49" fill="#365E39"/><circle cx="380.61" cy="164.36" r="6.6" fill="#365E39"/><circle cx="385.37" cy="165.8" r="5.48" fill="#365E39"/><circle cx="256.12" cy="164.25" r="5" fill="#527B3C"/><circle cx="265.12" cy="161.54" r="3.87" fill="#527B3C"/><circle cx="273.03" cy="161.16" r="3.95" fill="#527B3C"/><circle cx="283.63" cy="160.56" r="5.04" fill="#527B3C"/><circle cx="289.92" cy="161.82" r="4.04" fill="#527B3C"/><circle cx="297.31" cy="162.29" r="3.73" fill="#527B3C"/><circle cx="307.37" cy="161.46" r="5.19" fill="#527B3C"/><circle cx="317.89" cy="162.21" r="4.68" fill="#527B3C"/><circle cx="326.52" cy="161.63" r="3.6" fill="#527B3C"/><circle cx="332.35" cy="160.95" r="4.76" fill="#527B3C"/><circle cx="341.5" cy="161.78" r="4.99" fill="#527B3C"/><circle cx="349.53" cy="164.04" r="4.67" fill="#527B3C"/><circle cx="358.8" cy="164.12" r="4.08" fill="#527B3C"/><circle cx="369.31" cy="164.63" r="4.41" fill="#527B3C"/><circle cx="377.16" cy="164.74" r="4.89" fill="#527B3C"/><circle cx="386" cy="164.35" r="5.27" fill="#527B3C"/><circle cx="259.52" cy="164.85" r="3.2" fill="#FFFFFF"/><circle cx="273.19" cy="162.46" r="3.2" fill="#F2A0B4"/><circle cx="287.2" cy="160.77" r="3.2" fill="#F4E07A"/><circle cx="301.55" cy="164.31" r="3.2" fill="#C79BE0"/><circle cx="317.86" cy="164.25" r="3.2" fill="#F4E07A"/><circle cx="331.89" cy="160.65" r="3.2" fill="#F2A0B4"/><circle cx="345.63" cy="159.17" r="3.2" fill="#F2A0B4"/><circle cx="365.51" cy="164.18" r="3.2" fill="#8FB8EA"/><circle cx="377.62" cy="161.8" r="3.2" fill="#F4E07A"/><rect x="251" y="170" width="138" height="26" rx="4" fill="#C48C52"/><rect x="251" y="170" width="138" height="6" rx="4" fill="#D3A877"/><rect x="251" y="190" width="138" height="6" rx="3" fill="#9F7345"/><rect x="251" y="196" width="138" height="12" fill="#2A2018" opacity="0.26"/><rect x="385" y="31" width="126" height="150" rx="5" fill="#CCBEA3"/><rect x="385" y="31" width="126" height="9" rx="4" fill="#B8A990"/><rect x="394" y="42" width="108" height="124" rx="2" fill="#34291E"/><rect x="397" y="45" width="102" height="118" fill="url(#l171)"/><rect x="402" y="82" width="92" height="82" fill="#8A6A42" opacity="0.55"/><circle cx="448" cy="100" r="26" fill="#FFD98A" opacity="0.24"/><rect x="397" y="45" width="34" height="118" fill="#DCE8EE" opacity="0.42"/><rect x="397" y="45" width="102" height="20" fill="#DCE8EE" opacity="0.22"/><rect x="446" y="44" width="5" height="122" fill="#F1E5CB"/><rect x="396" y="102" width="104" height="5" fill="#F1E5CB"/><circle cx="383.3" cy="165.57" r="5.85" fill="#365E39"/><circle cx="388.88" cy="167.4" r="5.4" fill="#365E39"/><circle cx="394.81" cy="164.99" r="6.93" fill="#365E39"/><circle cx="404.14" cy="163.99" r="4.85" fill="#365E39"/><circle cx="409.44" cy="162.53" r="4.97" fill="#365E39"/><circle cx="417.83" cy="166.37" r="4.62" fill="#365E39"/><circle cx="425.76" cy="165.89" r="6.03" fill="#365E39"/><circle cx="432.45" cy="163.06" r="4.66" fill="#365E39"/><circle cx="437.77" cy="163.63" r="5.3" fill="#365E39"/><circle cx="445.31" cy="162.7" r="6.12" fill="#365E39"/><circle cx="452.84" cy="167.74" r="5.07" fill="#365E39"/><circle cx="457.22" cy="166.6" r="5.72" fill="#365E39"/><circle cx="467.49" cy="165.27" r="6.05" fill="#365E39"/><circle cx="471.36" cy="165.06" r="6.16" fill="#365E39"/><circle cx="479.98" cy="164.41" r="6.23" fill="#365E39"/><circle cx="485.68" cy="164.32" r="5.63" fill="#365E39"/><circle cx="495.52" cy="164.71" r="5.98" fill="#365E39"/><circle cx="499.47" cy="167.53" r="5.75" fill="#365E39"/><circle cx="506.7" cy="164.36" r="5.64" fill="#365E39"/><circle cx="515.83" cy="163.52" r="6.17" fill="#365E39"/><circle cx="382.88" cy="160.12" r="4.25" fill="#527B3C"/><circle cx="394.53" cy="161.68" r="5.04" fill="#527B3C"/><circle cx="401.06" cy="164.29" r="4.35" fill="#527B3C"/><circle cx="408.06" cy="160.7" r="3.46" fill="#527B3C"/><circle cx="419.18" cy="162.71" r="3.5" fill="#527B3C"/><circle cx="427.18" cy="160.03" r="5.03" fill="#527B3C"/><circle cx="434.95" cy="162.64" r="3.88" fill="#527B3C"/><circle cx="443.69" cy="160.01" r="4.48" fill="#527B3C"/><circle cx="451.79" cy="162.33" r="5" fill="#527B3C"/><circle cx="461.86" cy="163.13" r="4.07" fill="#527B3C"/><circle cx="470.59" cy="161.97" r="5.27" fill="#527B3C"/><circle cx="478.7" cy="163.9" r="4.75" fill="#527B3C"/><circle cx="487.24" cy="164.17" r="3.7" fill="#527B3C"/><circle cx="497.63" cy="160.87" r="3.8" fill="#527B3C"/><circle cx="503.76" cy="160.72" r="3.66" fill="#527B3C"/><circle cx="512.25" cy="161.5" r="3.6" fill="#527B3C"/><circle cx="383.6" cy="159.91" r="3.2" fill="#F08C6A"/><circle cx="402.59" cy="164.91" r="3.2" fill="#F4E07A"/><circle cx="415.52" cy="158.96" r="3.2" fill="#F08C6A"/><circle cx="431.95" cy="158.21" r="3.2" fill="#F08C6A"/><circle cx="447.51" cy="159.49" r="3.2" fill="#C79BE0"/><circle cx="461.48" cy="162.52" r="3.2" fill="#8FB8EA"/><circle cx="473.14" cy="159.84" r="3.2" fill="#8FB8EA"/><circle cx="490.85" cy="158.33" r="3.2" fill="#F4E07A"/><circle cx="508.01" cy="162.19" r="3.2" fill="#F2A0B4"/><rect x="379" y="170" width="138" height="26" rx="4" fill="#C48C52"/><rect x="379" y="170" width="138" height="6" rx="4" fill="#D3A877"/><rect x="379" y="190" width="138" height="6" rx="3" fill="#9F7345"/><rect x="379" y="196" width="138" height="12" fill="#2A2018" opacity="0.26"/><rect x="0" y="418" width="512" height="32" fill="#C4B69B"/><rect x="0" y="418" width="512" height="7" fill="#B2A28A"/><rect x="0" y="428" width="512" height="22" fill="#2A2018" opacity="0.22"/><rect x="18" y="292" width="189.8" height="134" rx="4" fill="#9F7345"/><rect x="18" y="292" width="189.8" height="6" rx="3" fill="#8C653F"/><rect x="26" y="300" width="173.8" height="118" fill="#5E4630"/><rect x="26" y="349.56" width="173.8" height="68.44" fill="#6E533A"/><circle cx="69.45" cy="318.88" r="35.4" fill="#FFD98A" opacity="0.3"/><circle cx="69.45" cy="318.88" r="18.88" fill="#FFE9B8" opacity="0.75"/><path d="M 69.45 300 L 69.45 309.44" fill="none" stroke="#6B5236" stroke-width="2.5" stroke-linecap="round" stroke-linejoin="round"/><circle cx="156.35" cy="318.88" r="35.4" fill="#FFD98A" opacity="0.3"/><circle cx="156.35" cy="318.88" r="18.88" fill="#FFE9B8" opacity="0.75"/><path d="M 156.35 300 L 156.35 309.44" fill="none" stroke="#6B5236" stroke-width="2.5" stroke-linecap="round" stroke-linejoin="round"/><rect x="32" y="370.8" width="161.8" height="47.2" fill="#7A5634"/><rect x="32" y="368.44" width="161.8" height="8" fill="#9A7346"/><rect x="44" y="356.64" width="11" height="12" fill="#F0E6D2"/><rect x="70" y="356.64" width="11" height="12" fill="#F0E6D2"/><rect x="96" y="356.64" width="11" height="12" fill="#F0E6D2"/><rect x="122" y="356.64" width="11" height="12" fill="#F0E6D2"/><rect x="148" y="356.64" width="11" height="12" fill="#F0E6D2"/><circle cx="78.14" cy="335.4" r="13" fill="#EFC49E"/><path d="M 65.14 335.4 A 13 13 0 0 1 91.14 335.4 Z" fill="#4A3222"/><rect x="64.14" y="347.2" width="28" height="28.32" fill="#5C7EA8"/><path d="M 26 418 L 85.09 300 L 130.28 300 L 71.19 418 Z" fill="#FFFFFF" opacity="0.13"/><rect x="80.93" y="300" width="6" height="118" fill="#9F7345"/><rect x="138.87" y="300" width="6" height="118" fill="#9F7345"/><rect x="26" y="300" width="173.8" height="30" fill="#241B12" opacity="0.3"/><rect x="26" y="334" width="173.8" height="16" fill="#241B12" opacity="0.18"/><rect x="335.8" y="292" width="158.2" height="134" rx="4" fill="#9F7345"/><rect x="335.8" y="292" width="158.2" height="6" rx="3" fill="#8C653F"/><rect x="343.8" y="300" width="142.2" height="118" fill="#5E4630"/><rect x="343.8" y="349.56" width="142.2" height="68.44" fill="#6E533A"/><circle cx="379.35" cy="318.88" r="35.4" fill="#FFD98A" opacity="0.3"/><circle cx="379.35" cy="318.88" r="18.88" fill="#FFE9B8" opacity="0.75"/><path d="M 379.35 300 L 379.35 309.44" fill="none" stroke="#6B5236" stroke-width="2.5" stroke-linecap="round" stroke-linejoin="round"/><circle cx="450.45" cy="318.88" r="35.4" fill="#FFD98A" opacity="0.3"/><circle cx="450.45" cy="318.88" r="18.88" fill="#FFE9B8" opacity="0.75"/><path d="M 450.45 300 L 450.45 309.44" fill="none" stroke="#6B5236" stroke-width="2.5" stroke-linecap="round" stroke-linejoin="round"/><rect x="349.8" y="370.8" width="130.2" height="47.2" fill="#7A5634"/><rect x="349.8" y="368.44" width="130.2" height="8" fill="#9A7346"/><rect x="361.8" y="356.64" width="11" height="12" fill="#F0E6D2"/><rect x="387.8" y="356.64" width="11" height="12" fill="#F0E6D2"/><rect x="413.8" y="356.64" width="11" height="12" fill="#F0E6D2"/><rect x="439.8" y="356.64" width="11" height="12" fill="#F0E6D2"/><circle cx="386.46" cy="335.4" r="13" fill="#EFC49E"/><path d="M 373.46 335.4 A 13 13 0 0 1 399.46 335.4 Z" fill="#4A3222"/><rect x="372.46" y="347.2" width="28" height="28.32" fill="#5C7EA8"/><path d="M 343.8 418 L 392.15 300 L 429.12 300 L 380.77 418 Z" fill="#FFFFFF" opacity="0.13"/><rect x="411.9" y="300" width="6" height="118" fill="#9F7345"/><rect x="343.8" y="300" width="142.2" height="30" fill="#241B12" opacity="0.3"/><rect x="343.8" y="334" width="142.2" height="16" fill="#241B12" opacity="0.18"/><rect x="208.8" y="292" width="126" height="144" rx="4" fill="#9B6F44"/><rect x="215.8" y="298" width="112" height="140" rx="3" fill="#B07F4B"/><rect x="225.8" y="308" width="92" height="62" rx="2" fill="#3E2E1E"/><circle cx="271.8" cy="340" r="30" fill="#FFD98A" opacity="0.3"/><circle cx="271.8" cy="340" r="16" fill="#FFE9B8" opacity="0.45"/><rect x="225.8" y="380" width="92" height="44" rx="2" fill="#BF8950"/><rect x="225.8" y="380" width="12" height="44" rx="2" fill="#CD9D69"/><circle cx="307.8" cy="362" r="6" fill="#D9BA8E"/><rect x="208.8" y="286" width="126" height="12" fill="#241B12" opacity="0.34"/><rect x="8" y="274" width="63" height="54" fill="#F7EFDF"/><rect x="70" y="274" width="63" height="54" fill="#E0938A"/><rect x="132" y="274" width="63" height="54" fill="#F7EFDF"/><rect x="194" y="274" width="63" height="54" fill="#E0938A"/><rect x="256" y="274" width="63" height="54" fill="#F7EFDF"/><rect x="318" y="274" width="63" height="54" fill="#E0938A"/><rect x="380" y="274" width="63" height="54" fill="#F7EFDF"/><rect x="442" y="274" width="63" height="54" fill="#E0938A"/><rect x="8" y="274" width="496" height="16" fill="#FFFFFF" opacity="0.32"/><rect x="8" y="310" width="496" height="18" fill="#241B12" opacity="0.16"/><path d="M 8 328 Q 43.43 362, 78.86 328 Q 114.29 362, 149.71 328 Q 185.14 362, 220.57 328 Q 256 362, 291.43 328 Q 326.86 362, 362.29 328 Q 397.71 362, 433.14 328 Q 468.57 362, 504 328 L 504 320 L 8 320 Z" fill="#E0938A"/><path d="M 8 328 Q 43.43 362, 78.86 328 Q 114.29 362, 149.71 328 Q 185.14 362, 220.57 328 Q 256 362, 291.43 328 Q 326.86 362, 362.29 328 Q 397.71 362, 433.14 328 Q 468.57 362, 504 328 L 504 320 L 8 320 Z" fill="#241B12" opacity="0.13"/><rect x="8" y="267" width="496" height="13" rx="3" fill="#F9F1E0"/><rect x="0" y="206" width="512" height="62" fill="#A38156"/><rect x="0" y="206" width="512" height="8" fill="#8C6E4A"/><rect x="35" y="212" width="442" height="50" rx="4" fill="#C9A06A"/><rect x="35" y="212" width="442" height="16" rx="4" fill="#D4B182"/><rect x="35" y="250" width="442" height="12" fill="#B79161"/><rect x="0" y="268" width="512" height="10" fill="#241B12" opacity="0.22"/><path d="M 505.72 412 L 512.56 372 L 515 332 L 512.24 292 L 505.18 252 L 496.12 212 L 487.99 172 L 483.44 132 L 483.93 92 L 489.32 52" fill="none" stroke="#365E39" stroke-width="2.5" stroke-linecap="round" stroke-linejoin="round"/><circle cx="521.69" cy="318.76" r="8.08" fill="#365E39"/><circle cx="520.07" cy="316.74" r="5.82" fill="#527B3C"/><circle cx="519.1" cy="315.69" r="3.07" fill="#98B543"/><circle cx="504.53" cy="345.14" r="5.66" fill="#365E39"/><circle cx="503.39" cy="343.72" r="4.08" fill="#527B3C"/><circle cx="502.71" cy="342.99" r="2.15" fill="#98B543"/><circle cx="470.62" cy="147.75" r="7.39" fill="#365E39"/><circle cx="469.15" cy="145.9" r="5.32" fill="#527B3C"/><circle cx="468.26" cy="144.94" r="2.81" fill="#98B543"/><circle cx="511.17" cy="305.92" r="8.77" fill="#365E39"/><circle cx="509.41" cy="303.73" r="6.31" fill="#527B3C"/><circle cx="508.36" cy="302.59" r="3.33" fill="#98B543"/><circle cx="498.27" cy="406.8" r="5.66" fill="#365E39"/><circle cx="497.14" cy="405.39" r="4.08" fill="#527B3C"/><circle cx="496.46" cy="404.65" r="2.15" fill="#98B543"/><circle cx="494.67" cy="120.49" r="8.72" fill="#365E39"/><circle cx="492.92" cy="118.31" r="6.28" fill="#527B3C"/><circle cx="491.88" cy="117.18" r="3.31" fill="#98B543"/><circle cx="497.5" cy="70.24" r="6.16" fill="#365E39"/><circle cx="496.27" cy="68.7" r="4.43" fill="#527B3C"/><circle cx="495.53" cy="67.9" r="2.34" fill="#98B543"/><circle cx="511.5" cy="236.76" r="7.54" fill="#365E39"/><circle cx="509.99" cy="234.87" r="5.43" fill="#527B3C"/><circle cx="509.09" cy="233.89" r="2.86" fill="#98B543"/><circle cx="507.97" cy="280.89" r="6.41" fill="#365E39"/><circle cx="506.68" cy="279.28" r="4.62" fill="#527B3C"/><circle cx="505.92" cy="278.45" r="2.44" fill="#98B543"/><circle cx="513.08" cy="285.66" r="3.4" fill="#FFFFFF"/><circle cx="488.68" cy="163.27" r="8.37" fill="#365E39"/><circle cx="487.01" cy="161.18" r="6.02" fill="#527B3C"/><circle cx="486" cy="160.09" r="3.18" fill="#98B543"/><circle cx="491.51" cy="162.36" r="3.4" fill="#F4E07A"/><circle cx="501.63" cy="306.41" r="6.6" fill="#365E39"/><circle cx="500.31" cy="304.76" r="4.75" fill="#527B3C"/><circle cx="499.52" cy="303.9" r="2.51" fill="#98B543"/><circle cx="506.25" cy="317.77" r="9" fill="#365E39"/><circle cx="504.45" cy="315.52" r="6.48" fill="#527B3C"/><circle cx="503.36" cy="314.34" r="3.42" fill="#98B543"/><circle cx="499.06" cy="213.99" r="8.99" fill="#365E39"/><circle cx="497.26" cy="211.74" r="6.47" fill="#527B3C"/><circle cx="496.18" cy="210.57" r="3.42" fill="#98B543"/><circle cx="510.72" cy="364.8" r="7.83" fill="#365E39"/><circle cx="509.16" cy="362.85" r="5.64" fill="#527B3C"/><circle cx="508.22" cy="361.83" r="2.98" fill="#98B543"/><circle cx="503.01" cy="411.21" r="8.9" fill="#365E39"/><circle cx="501.23" cy="408.99" r="6.41" fill="#527B3C"/><circle cx="500.16" cy="407.83" r="3.38" fill="#98B543"/><circle cx="508.42" cy="232.71" r="7" fill="#365E39"/><circle cx="507.02" cy="230.96" r="5.04" fill="#527B3C"/><circle cx="506.18" cy="230.05" r="2.66" fill="#98B543"/><circle cx="493.69" cy="148.07" r="6.13" fill="#365E39"/><circle cx="492.46" cy="146.53" r="4.41" fill="#527B3C"/><circle cx="491.72" cy="145.74" r="2.33" fill="#98B543"/><circle cx="519.19" cy="285.79" r="7.84" fill="#365E39"/><circle cx="517.62" cy="283.83" r="5.64" fill="#527B3C"/><circle cx="516.68" cy="282.81" r="2.98" fill="#98B543"/><circle cx="503.85" cy="175.53" r="8.17" fill="#365E39"/><circle cx="502.22" cy="173.49" r="5.88" fill="#527B3C"/><circle cx="501.24" cy="172.43" r="3.1" fill="#98B543"/><circle cx="514.77" cy="233.32" r="5.19" fill="#365E39"/><circle cx="513.73" cy="232.02" r="3.74" fill="#527B3C"/><circle cx="513.1" cy="231.34" r="1.97" fill="#98B543"/><circle cx="511.64" cy="398.09" r="7.56" fill="#365E39"/><circle cx="510.13" cy="396.2" r="5.45" fill="#527B3C"/><circle cx="509.22" cy="395.21" r="2.87" fill="#98B543"/><circle cx="525.78" cy="342.57" r="7.5" fill="#365E39"/><circle cx="524.28" cy="340.69" r="5.4" fill="#527B3C"/><circle cx="523.38" cy="339.72" r="2.85" fill="#98B543"/><circle cx="511.74" cy="351.76" r="7.68" fill="#365E39"/><circle cx="510.2" cy="349.84" r="5.53" fill="#527B3C"/><circle cx="509.28" cy="348.84" r="2.92" fill="#98B543"/><circle cx="504.3" cy="161.74" r="8.71" fill="#365E39"/><circle cx="502.56" cy="159.56" r="6.27" fill="#527B3C"/><circle cx="501.51" cy="158.43" r="3.31" fill="#98B543"/><circle cx="484.32" cy="222.43" r="6.4" fill="#365E39"/><circle cx="483.04" cy="220.83" r="4.61" fill="#527B3C"/><circle cx="482.27" cy="220" r="2.43" fill="#98B543"/><circle cx="486.97" cy="85.57" r="8.15" fill="#365E39"/><circle cx="485.34" cy="83.54" r="5.86" fill="#527B3C"/><circle cx="484.36" cy="82.48" r="3.1" fill="#98B543"/><circle cx="512.26" cy="224.07" r="5.16" fill="#365E39"/><circle cx="511.23" cy="222.78" r="3.72" fill="#527B3C"/><circle cx="510.61" cy="222.11" r="1.96" fill="#98B543"/><circle cx="516.4" cy="356.18" r="7.4" fill="#365E39"/><circle cx="514.92" cy="354.33" r="5.33" fill="#527B3C"/><circle cx="514.04" cy="353.37" r="2.81" fill="#98B543"/><circle cx="503.87" cy="331.7" r="8.59" fill="#365E39"/><circle cx="502.15" cy="329.55" r="6.19" fill="#527B3C"/><circle cx="501.12" cy="328.43" r="3.27" fill="#98B543"/><circle cx="472.45" cy="154.88" r="5.66" fill="#365E39"/><circle cx="471.32" cy="153.46" r="4.07" fill="#527B3C"/><circle cx="470.64" cy="152.73" r="2.15" fill="#98B543"/><circle cx="472.18" cy="115.29" r="6.91" fill="#365E39"/><circle cx="470.79" cy="113.56" r="4.98" fill="#527B3C"/><circle cx="469.97" cy="112.66" r="2.63" fill="#98B543"/><circle cx="487.04" cy="133.75" r="6.93" fill="#365E39"/><circle cx="485.65" cy="132.02" r="4.99" fill="#527B3C"/><circle cx="484.82" cy="131.12" r="2.63" fill="#98B543"/><circle cx="499.65" cy="258.85" r="7.07" fill="#365E39"/><circle cx="498.24" cy="257.08" r="5.09" fill="#527B3C"/><circle cx="497.39" cy="256.16" r="2.69" fill="#98B543"/><circle cx="492.38" cy="265.59" r="3.4" fill="#8FB8EA"/><circle cx="471.75" cy="133.41" r="7.16" fill="#365E39"/><circle cx="470.32" cy="131.62" r="5.16" fill="#527B3C"/><circle cx="469.46" cy="130.69" r="2.72" fill="#98B543"/><circle cx="504.26" cy="292.17" r="6.96" fill="#365E39"/><circle cx="502.87" cy="290.43" r="5.01" fill="#527B3C"/><circle cx="502.03" cy="289.52" r="2.64" fill="#98B543"/><circle cx="510.08" cy="285.96" r="3.4" fill="#F4E07A"/><circle cx="507.53" cy="333.42" r="6.75" fill="#365E39"/><circle cx="506.18" cy="331.73" r="4.86" fill="#527B3C"/><circle cx="505.37" cy="330.86" r="2.56" fill="#98B543"/><circle cx="501.58" cy="331.2" r="3.4" fill="#C79BE0"/><circle cx="496.9" cy="201.31" r="6.95" fill="#365E39"/><circle cx="495.51" cy="199.58" r="5.01" fill="#527B3C"/><circle cx="494.68" cy="198.67" r="2.64" fill="#98B543"/><circle cx="531.51" cy="305.63" r="5.22" fill="#365E39"/><circle cx="530.47" cy="304.32" r="3.76" fill="#527B3C"/><circle cx="529.84" cy="303.64" r="1.98" fill="#98B543"/><circle cx="537.71" cy="309.46" r="3.4" fill="#F2A0B4"/><circle cx="499.77" cy="89.97" r="8.07" fill="#365E39"/><circle cx="498.16" cy="87.95" r="5.81" fill="#527B3C"/><circle cx="497.19" cy="86.9" r="3.07" fill="#98B543"/><circle cx="506.68" cy="83.09" r="3.4" fill="#FFFFFF"/><circle cx="472.22" cy="123.36" r="8.23" fill="#365E39"/><circle cx="470.57" cy="121.3" r="5.93" fill="#527B3C"/><circle cx="469.58" cy="120.23" r="3.13" fill="#98B543"/><circle cx="486.42" cy="75.28" r="9.14" fill="#365E39"/><circle cx="484.59" cy="72.99" r="6.58" fill="#527B3C"/><circle cx="483.49" cy="71.8" r="3.47" fill="#98B543"/><circle cx="499.27" cy="205.62" r="8.78" fill="#365E39"/><circle cx="497.51" cy="203.43" r="6.32" fill="#527B3C"/><circle cx="496.46" cy="202.29" r="3.34" fill="#98B543"/><circle cx="498.96" cy="370.47" r="7.4" fill="#365E39"/><circle cx="497.48" cy="368.62" r="5.33" fill="#527B3C"/><circle cx="496.59" cy="367.65" r="2.81" fill="#98B543"/><circle cx="490.31" cy="219.91" r="9.33" fill="#365E39"/><circle cx="488.45" cy="217.57" r="6.72" fill="#527B3C"/><circle cx="487.33" cy="216.36" r="3.54" fill="#98B543"/><circle cx="494.37" cy="380.72" r="5.14" fill="#365E39"/><circle cx="493.34" cy="379.44" r="3.7" fill="#527B3C"/><circle cx="492.72" cy="378.77" r="1.95" fill="#98B543"/><circle cx="520.6" cy="373.42" r="8.9" fill="#365E39"/><circle cx="518.82" cy="371.2" r="6.41" fill="#527B3C"/><circle cx="517.75" cy="370.04" r="3.38" fill="#98B543"/><circle cx="480.17" cy="120.74" r="7.8" fill="#365E39"/><circle cx="478.61" cy="118.79" r="5.62" fill="#527B3C"/><circle cx="477.67" cy="117.77" r="2.96" fill="#98B543"/><circle cx="477.44" cy="154.23" r="8.43" fill="#365E39"/><circle cx="475.76" cy="152.13" r="6.07" fill="#527B3C"/><circle cx="474.74" cy="151.03" r="3.2" fill="#98B543"/><circle cx="474.38" cy="162.17" r="3.4" fill="#C79BE0"/><circle cx="495.79" cy="271.57" r="5.67" fill="#365E39"/><circle cx="494.65" cy="270.15" r="4.08" fill="#527B3C"/><circle cx="493.97" cy="269.41" r="2.16" fill="#98B543"/><circle cx="499.76" cy="222.52" r="6.24" fill="#365E39"/><circle cx="498.51" cy="220.96" r="4.5" fill="#527B3C"/><circle cx="497.76" cy="220.15" r="2.37" fill="#98B543"/><circle cx="506.06" cy="54.81" r="9.29" fill="#365E39"/><circle cx="504.21" cy="52.49" r="6.69" fill="#527B3C"/><circle cx="503.09" cy="51.28" r="3.53" fill="#98B543"/><path d="M -2.54 412 L -5 383 L -2.26 354 L 4.78 325 L 13.84 296 L 21.98 267 L 26.55 238 L 26.08 209 L 20.71 180 L 12.19 151" fill="none" stroke="#365E39" stroke-width="2.5" stroke-linecap="round" stroke-linejoin="round"/><circle cx="35.22" cy="170.61" r="9.02" fill="#365E39"/><circle cx="33.42" cy="168.36" r="6.49" fill="#527B3C"/><circle cx="32.34" cy="167.18" r="3.43" fill="#98B543"/><circle cx="36.69" cy="169.39" r="3.4" fill="#F08C6A"/><circle cx="15.31" cy="318.54" r="6.2" fill="#365E39"/><circle cx="14.07" cy="316.99" r="4.47" fill="#527B3C"/><circle cx="13.32" cy="316.18" r="2.36" fill="#98B543"/><circle cx="17.23" cy="324.97" r="3.4" fill="#F2A0B4"/><circle cx="3.09" cy="389.61" r="6.9" fill="#365E39"/><circle cx="1.71" cy="387.89" r="4.96" fill="#527B3C"/><circle cx="0.88" cy="386.99" r="2.62" fill="#98B543"/><circle cx="21.54" cy="220.37" r="5.26" fill="#365E39"/><circle cx="20.49" cy="219.06" r="3.79" fill="#527B3C"/><circle cx="19.85" cy="218.37" r="2" fill="#98B543"/><circle cx="29.83" cy="258.24" r="7.79" fill="#365E39"/><circle cx="28.27" cy="256.29" r="5.61" fill="#527B3C"/><circle cx="27.34" cy="255.28" r="2.96" fill="#98B543"/><circle cx="16.97" cy="317.31" r="6.66" fill="#365E39"/><circle cx="15.64" cy="315.65" r="4.79" fill="#527B3C"/><circle cx="14.84" cy="314.78" r="2.53" fill="#98B543"/><circle cx="19.37" cy="239.6" r="5.39" fill="#365E39"/><circle cx="18.3" cy="238.25" r="3.88" fill="#527B3C"/><circle cx="17.65" cy="237.55" r="2.05" fill="#98B543"/><circle cx="30.44" cy="224.62" r="7.01" fill="#365E39"/><circle cx="29.03" cy="222.87" r="5.05" fill="#527B3C"/><circle cx="28.19" cy="221.96" r="2.67" fill="#98B543"/><circle cx="-16.05" cy="364.49" r="6.46" fill="#365E39"/><circle cx="-17.34" cy="362.88" r="4.65" fill="#527B3C"/><circle cx="-18.11" cy="362.04" r="2.45" fill="#98B543"/><circle cx="-18.03" cy="360.95" r="5.44" fill="#365E39"/><circle cx="-19.12" cy="359.59" r="3.92" fill="#527B3C"/><circle cx="-19.77" cy="358.88" r="2.07" fill="#98B543"/><circle cx="-21.62" cy="362.11" r="3.4" fill="#F08C6A"/><circle cx="-0.37" cy="325.66" r="6.3" fill="#365E39"/><circle cx="-1.63" cy="324.09" r="4.53" fill="#527B3C"/><circle cx="-2.38" cy="323.27" r="2.39" fill="#98B543"/><circle cx="27.95" cy="209.05" r="6.16" fill="#365E39"/><circle cx="26.71" cy="207.51" r="4.44" fill="#527B3C"/><circle cx="25.97" cy="206.71" r="2.34" fill="#98B543"/><circle cx="32.49" cy="212.37" r="3.4" fill="#C79BE0"/><circle cx="0.24" cy="349.88" r="9.13" fill="#365E39"/><circle cx="-1.58" cy="347.59" r="6.58" fill="#527B3C"/><circle cx="-2.68" cy="346.4" r="3.47" fill="#98B543"/><circle cx="3.96" cy="165.23" r="9.39" fill="#365E39"/><circle cx="2.08" cy="162.89" r="6.76" fill="#527B3C"/><circle cx="0.96" cy="161.67" r="3.57" fill="#98B543"/><circle cx="2.62" cy="157.61" r="3.4" fill="#F4E07A"/><circle cx="44.87" cy="232.64" r="8.62" fill="#365E39"/><circle cx="43.14" cy="230.48" r="6.21" fill="#527B3C"/><circle cx="42.11" cy="229.36" r="3.28" fill="#98B543"/><circle cx="39.46" cy="271.43" r="8.37" fill="#365E39"/><circle cx="37.79" cy="269.33" r="6.03" fill="#527B3C"/><circle cx="36.78" cy="268.25" r="3.18" fill="#98B543"/><circle cx="9.62" cy="157.68" r="5.87" fill="#365E39"/><circle cx="8.45" cy="156.22" r="4.23" fill="#527B3C"/><circle cx="7.74" cy="155.45" r="2.23" fill="#98B543"/><circle cx="9.08" cy="152.83" r="3.4" fill="#C79BE0"/><circle cx="5.42" cy="163.93" r="5.47" fill="#365E39"/><circle cx="4.33" cy="162.57" r="3.94" fill="#527B3C"/><circle cx="3.67" cy="161.85" r="2.08" fill="#98B543"/><circle cx="-2.53" cy="367.71" r="8.66" fill="#365E39"/><circle cx="-4.26" cy="365.55" r="6.23" fill="#527B3C"/><circle cx="-5.3" cy="364.42" r="3.29" fill="#98B543"/><circle cx="27.2" cy="301.92" r="7" fill="#365E39"/><circle cx="25.8" cy="300.17" r="5.04" fill="#527B3C"/><circle cx="24.96" cy="299.26" r="2.66" fill="#98B543"/><circle cx="32.4" cy="179.1" r="9.03" fill="#365E39"/><circle cx="30.6" cy="176.85" r="6.5" fill="#527B3C"/><circle cx="29.51" cy="175.67" r="3.43" fill="#98B543"/><circle cx="18.54" cy="304.31" r="8.73" fill="#365E39"/><circle cx="16.79" cy="302.12" r="6.29" fill="#527B3C"/><circle cx="15.75" cy="300.99" r="3.32" fill="#98B543"/><circle cx="-9.24" cy="349.77" r="6.84" fill="#365E39"/><circle cx="-10.61" cy="348.06" r="4.93" fill="#527B3C"/><circle cx="-11.43" cy="347.17" r="2.6" fill="#98B543"/><circle cx="23.97" cy="266.6" r="8.72" fill="#365E39"/><circle cx="22.22" cy="264.42" r="6.28" fill="#527B3C"/><circle cx="21.18" cy="263.29" r="3.31" fill="#98B543"/><circle cx="26.07" cy="263.92" r="3.4" fill="#F08C6A"/><circle cx="24.3" cy="221.8" r="5.74" fill="#365E39"/><circle cx="23.15" cy="220.36" r="4.14" fill="#527B3C"/><circle cx="22.46" cy="219.62" r="2.18" fill="#98B543"/><circle cx="12.29" cy="323.81" r="5.51" fill="#365E39"/><circle cx="11.19" cy="322.44" r="3.97" fill="#527B3C"/><circle cx="10.53" cy="321.72" r="2.09" fill="#98B543"/><circle cx="27.03" cy="162.06" r="9.45" fill="#365E39"/><circle cx="25.14" cy="159.7" r="6.8" fill="#527B3C"/><circle cx="24.01" cy="158.47" r="3.59" fill="#98B543"/><circle cx="-12.95" cy="323.74" r="9.3" fill="#365E39"/><circle cx="-14.81" cy="321.41" r="6.7" fill="#527B3C"/><circle cx="-15.93" cy="320.2" r="3.54" fill="#98B543"/><circle cx="21.46" cy="307.14" r="5.14" fill="#365E39"/><circle cx="20.43" cy="305.86" r="3.7" fill="#527B3C"/><circle cx="19.82" cy="305.19" r="1.95" fill="#98B543"/><circle cx="44.03" cy="217.34" r="6.89" fill="#365E39"/><circle cx="42.66" cy="215.61" r="4.96" fill="#527B3C"/><circle cx="41.83" cy="214.72" r="2.62" fill="#98B543"/><circle cx="42.92" cy="256.09" r="8.24" fill="#365E39"/><circle cx="41.28" cy="254.03" r="5.93" fill="#527B3C"/><circle cx="40.29" cy="252.96" r="3.13" fill="#98B543"/><circle cx="43.44" cy="252.34" r="3.4" fill="#F2A0B4"/><circle cx="-18.7" cy="352.88" r="9.01" fill="#365E39"/><circle cx="-20.5" cy="350.63" r="6.48" fill="#527B3C"/><circle cx="-21.58" cy="349.46" r="3.42" fill="#98B543"/><circle cx="-4.91" cy="407.34" r="6.85" fill="#365E39"/><circle cx="-6.28" cy="405.63" r="4.93" fill="#527B3C"/><circle cx="-7.1" cy="404.74" r="2.6" fill="#98B543"/><circle cx="22.35" cy="305.68" r="6.23" fill="#365E39"/><circle cx="21.1" cy="304.12" r="4.49" fill="#527B3C"/><circle cx="20.35" cy="303.31" r="2.37" fill="#98B543"/><circle cx="-21.78" cy="370.12" r="8.99" fill="#365E39"/><circle cx="-23.58" cy="367.88" r="6.47" fill="#527B3C"/><circle cx="-24.66" cy="366.71" r="3.42" fill="#98B543"/><circle cx="41.16" cy="214.71" r="7.42" fill="#365E39"/><circle cx="39.67" cy="212.85" r="5.35" fill="#527B3C"/><circle cx="38.78" cy="211.88" r="2.82" fill="#98B543"/><circle cx="23.77" cy="311.77" r="9.45" fill="#365E39"/><circle cx="21.89" cy="309.41" r="6.8" fill="#527B3C"/><circle cx="20.75" cy="308.18" r="3.59" fill="#98B543"/><circle cx="21.71" cy="313.7" r="3.4" fill="#F2A0B4"/></g><polygon points="84,375.4 622,644.4 744.88,447.44 319.92,234.96" fill="#CB785C"/><polygon points="622,644.4 980.8,465 744.88,447.44" fill="#9F5940"/><polygon points="442.8,183 84,375.4 319.92,234.96" fill="#93543C"/><line x1="117.7" y1="355.34" x2="639.55" y2="616.26" stroke="#B36045" stroke-width="3" stroke-linecap="butt" opacity="0.35"/><line x1="151.41" y1="335.27" x2="657.11" y2="588.13" stroke="#B36045" stroke-width="3" stroke-linecap="butt" opacity="0.35"/><line x1="185.11" y1="315.21" x2="674.66" y2="559.99" stroke="#B36045" stroke-width="3" stroke-linecap="butt" opacity="0.35"/><line x1="218.81" y1="295.15" x2="692.22" y2="531.85" stroke="#B36045" stroke-width="3" stroke-linecap="butt" opacity="0.35"/><line x1="252.51" y1="275.09" x2="709.77" y2="503.71" stroke="#B36045" stroke-width="3" stroke-linecap="butt" opacity="0.35"/><line x1="286.22" y1="255.02" x2="727.33" y2="475.58" stroke="#B36045" stroke-width="3" stroke-linecap="butt" opacity="0.35"/><line x1="319.92" y1="232.96" x2="744.88" y2="445.44" stroke="#D8987E" stroke-width="5" stroke-linecap="round"/><polygon points="84,375.4 622,644.4 622,618.4 110,362.4" fill="#241B12" opacity="0.26"/><rect x="613.39" y="304.2" width="42" height="92" rx="2" fill="#E7D9BC"/><rect x="613.39" y="304.2" width="14" height="92" fill="#ECDFC4"/><rect x="607.39" y="294.2" width="54" height="17" rx="2" fill="#C1B298"/></svg>