<svg xmlns="http://www.w3.org/2000/svg" width="337" height="400" viewBox="0 0 337 400"><ellipse cx="174.5" cy="388" rx="91.69" ry="33.11" fill="#3A3226" opacity="0.05"/><ellipse cx="174.5" cy="388" rx="78.01" ry="28.17" fill="#3A3226" opacity="0.07"/><ellipse cx="174.5" cy="388" rx="68.43" ry="24.71" fill="#3A3226" opacity="0.1"/><path d="M 146.5 386 C 152.66 314, 155.74 290, 157.5 266 L 179.5 266 C 181.26 290, 184.34 314, 190.5 386 Z" fill="#96683F" stroke="#6E4A2B" stroke-width="5" stroke-linecap="round" stroke-linejoin="round"/><path d="M 176.2 380 L 172.9 284" fill="none" stroke="#6E4A2B" stroke-width="6" stroke-linecap="round" stroke-linejoin="round" opacity="0.5"/><path d="M 161.9 284 Q 136.19 260, 120.98 209.92" fill="none" stroke="#96683F" stroke-width="11" stroke-linecap="round" stroke-linejoin="round"/><path d="M 175.1 284 Q 200.81 260, 216.02 209.92" fill="none" stroke="#96683F" stroke-width="11" stroke-linecap="round" stroke-linejoin="round"/><circle cx="171.93" cy="126.36" r="48.56" fill="#3C6E2E" stroke="#3C6E2E" stroke-width="10"/><circle cx="215.92" cy="144.05" r="57.12" fill="#3C6E2E" stroke="#3C6E2E" stroke-width="10"/><circle cx="224.22" cy="184.23" r="53.39" fill="#3C6E2E" stroke="#3C6E2E" stroke-width="10"/><circle cx="191.82" cy="210.15" r="51.73" fill="#3C6E2E" stroke="#3C6E2E" stroke-width="10"/><circle cx="142.46" cy="209.22" r="48.75" fill="#3C6E2E" stroke="#3C6E2E" stroke-width="10"/><circle cx="110.38" cy="177.22" r="54.37" fill="#3C6E2E" stroke="#3C6E2E" stroke-width="10"/><circle cx="119.98" cy="145.19" r="51.84" fill="#3C6E2E" stroke="#3C6E2E" stroke-width="10"/><circle cx="172.28" cy="169.33" r="62.73" fill="#3C6E2E" stroke="#3C6E2E" stroke-width="10"/><circle cx="143.79" cy="137.69" r="41.82" fill="#3C6E2E" stroke="#3C6E2E" stroke-width="10"/><circle cx="171.93" cy="126.36" r="48.56" fill="#6FB544"/><circle cx="215.92" cy="144.05" r="57.12" fill="#6FB544"/><circle cx="224.22" cy="184.23" r="53.39" fill="#6FB544"/><circle cx="191.82" cy="210.15" r="51.73" fill="#6FB544"/><circle cx="142.46" cy="209.22" r="48.75" fill="#6FB544"/><circle cx="110.38" cy="177.22" r="54.37" fill="#6FB544"/><circle cx="119.98" cy="145.19" r="51.84" fill="#6FB544"/><circle cx="172.28" cy="169.33" r="62.73" fill="#6FB544"/><circle cx="143.79" cy="137.69" r="41.82" fill="#6FB544"/><circle cx="164.16" cy="116.64" r="37.88" fill="#B8E282"/><circle cx="160.27" cy="111.79" r="22.34" fill="#B8E282"/><circle cx="206.78" cy="132.63" r="44.56" fill="#B8E282"/><circle cx="202.21" cy="126.91" r="26.28" fill="#B8E282"/><circle cx="137.1" cy="129.32" r="32.62" fill="#B8E282"/><circle cx="133.75" cy="125.14" r="19.24" fill="#B8E282"/><circle cx="111.69" cy="134.82" r="40.43" fill="#B8E282"/><circle cx="107.54" cy="129.64" r="23.85" fill="#B8E282"/><circle cx="163.5" cy="159.29" r="41.4" fill="#95CF60"/><circle cx="216.74" cy="175.68" r="35.24" fill="#95CF60"/><ellipse cx="183.71" cy="208.02" rx="43.72" ry="19.01" fill="#4C8A3B" opacity="0.35"/></svg>